# Blender 3.1.0
# www.blender.org
mtllib Estanteria.mtl
o Estante.001
v -0.713313 2.000000 0.346552
v -0.769071 2.000000 0.346552
v -0.769071 2.000000 0.402310
v -0.713313 2.000000 0.402310
v -0.769071 0.000000 0.402310
v -0.713313 0.000000 0.402310
v -0.713313 0.000000 0.346552
v -0.769071 0.000000 0.346552
v -0.713313 2.000000 -0.413946
v -0.769071 2.000000 -0.413946
v -0.769071 2.000000 -0.358187
v -0.713313 2.000000 -0.358187
v -0.769071 0.000000 -0.358187
v -0.713313 0.000000 -0.358187
v -0.713313 0.000000 -0.413946
v -0.769071 0.000000 -0.413946
v 0.761779 2.000000 -0.413946
v 0.706021 2.000000 -0.413946
v 0.706021 2.000000 -0.358187
v 0.761779 2.000000 -0.358187
v 0.706021 0.000000 -0.358187
v 0.761779 0.000000 -0.358187
v 0.761779 0.000000 -0.413946
v 0.706021 0.000000 -0.413946
v 0.761779 2.000000 0.346552
v 0.706021 2.000000 0.346552
v 0.706021 2.000000 0.402310
v 0.761779 2.000000 0.402310
v 0.706021 0.000000 0.402310
v 0.761779 0.000000 0.402310
v 0.761779 0.000000 0.346552
v 0.706021 0.000000 0.346552
v -0.754837 0.457004 -0.393197
v 0.747546 0.457004 -0.393197
v -0.754837 0.457004 0.381561
v 0.747546 0.457004 0.381561
v 0.747546 0.482997 -0.393197
v -0.754837 0.482997 -0.393197
v -0.754837 0.482997 0.381561
v 0.747546 0.482997 0.381561
v -0.754837 0.957004 -0.393197
v 0.747546 0.957004 -0.393197
v -0.754837 0.957004 0.381561
v 0.747546 0.957004 0.381561
v 0.747546 0.982996 -0.393197
v -0.754837 0.982996 -0.393197
v -0.754837 0.982996 0.381561
v 0.747546 0.982996 0.381561
v -0.754837 1.457004 -0.393197
v 0.747546 1.457004 -0.393197
v -0.754837 1.457004 0.381561
v 0.747546 1.457004 0.381561
v 0.747546 1.482996 -0.393197
v -0.754837 1.482996 -0.393197
v -0.754837 1.482996 0.381561
v 0.747546 1.482996 0.381561
v -0.754837 1.957004 -0.393197
v 0.747546 1.957004 -0.393197
v -0.754837 1.957004 0.381561
v 0.747546 1.957004 0.381561
v 0.747546 1.982997 -0.393197
v -0.754837 1.982997 -0.393197
v -0.754837 1.982997 0.381561
v 0.747546 1.982997 0.381561
v 0.747546 0.032997 -0.393197
v -0.754837 0.032997 -0.393197
v -0.754837 0.032997 0.381561
v 0.747546 0.032997 0.381561
v -0.754837 0.007004 0.381561
v 0.747546 0.007004 0.381561
v 0.747546 0.007004 -0.393197
v -0.754837 0.007004 -0.393197
vn -0.0000 1.0000 -0.0000
vn -0.0000 -0.0000 1.0000
vn 1.0000 -0.0000 -0.0000
vn -0.0000 -0.0000 -1.0000
vn -1.0000 -0.0000 -0.0000
vn -0.0000 -1.0000 -0.0000
vt 0.336182 0.571777
vt 0.170776 0.483887
vt 0.209595 0.483887
vt 0.322754 0.571777
vt 0.223022 0.483887
vt 0.244385 0.483887
vt 0.322754 0.558105
vt 0.122437 0.483887
vt 0.257812 0.483887
vt 0.336182 0.558105
vt 0.135864 0.483887
vt 0.157227 0.483887
vt 0.122437 0.000977
vt 0.257812 0.000977
vt 0.135864 0.000977
vt 0.157227 0.000977
vt 0.170776 0.000977
vt 0.209595 0.000977
vt 0.223022 0.000977
vt 0.244385 0.000977
vt 0.310059 0.571777
vt 0.118469 0.483887
vt 0.070190 0.483887
vt 0.296631 0.571777
vt 0.083618 0.483887
vt 0.139893 0.483887
vt 0.296631 0.558105
vt 0.087585 0.483887
vt 0.153320 0.483887
vt 0.310059 0.558105
vt 0.101074 0.483887
vt 0.105042 0.483887
vt 0.087585 0.000977
vt 0.153320 0.000977
vt 0.101074 0.000977
vt 0.105042 0.000977
vt 0.118469 0.000977
vt 0.070190 0.000977
vt 0.083618 0.000977
vt 0.139893 0.000977
vt 0.283936 0.571777
vt 0.205566 0.483887
vt 0.035339 0.483887
vt 0.270508 0.571777
vt 0.048798 0.483887
vt 0.226929 0.483887
vt 0.270508 0.558105
vt 0.052765 0.483887
vt 0.240479 0.483887
vt 0.283936 0.558105
vt 0.066223 0.483887
vt 0.192139 0.483887
vt 0.052765 0.000977
vt 0.240479 0.000977
vt 0.066223 0.000977
vt 0.192139 0.000977
vt 0.205566 0.000977
vt 0.035339 0.000977
vt 0.048798 0.000977
vt 0.226929 0.000977
vt 0.362305 0.571777
vt 0.031372 0.483887
vt 0.000500 0.975983
vt 0.348877 0.571777
vt 0.013969 0.975983
vt 0.000500 0.488281
vt 0.348877 0.558105
vt 0.174683 0.483887
vt 0.013969 0.488281
vt 0.362305 0.558105
vt 0.188110 0.483887
vt 0.017914 0.483887
vt 0.174683 0.000977
vt 0.013969 0.004883
vt 0.188110 0.000977
vt 0.017914 0.000977
vt 0.031372 0.000977
vt 0.000500 0.493164
vt 0.013969 0.493164
vt 0.000500 0.004883
vt 0.636230 0.196777
vt 0.633301 0.192383
vt 0.270508 0.505859
vt 0.999023 0.196777
vt 0.457764 0.514648
vt 0.270508 0.192383
vt 0.636230 0.383789
vt 0.270508 0.227051
vt 0.457764 0.505859
vt 0.999023 0.383789
vt 0.633301 0.227051
vt 0.270508 0.514648
vt 0.380859 0.793213
vt 0.457764 0.520996
vt 0.270508 0.198730
vt 0.017914 0.793213
vt 0.633301 0.198730
vt 0.270508 0.512207
vt 0.017914 0.606201
vt 0.270508 0.233398
vt 0.457764 0.512207
vt 0.380859 0.606201
vt 0.633301 0.233398
vt 0.270508 0.520996
vt 0.383789 0.802124
vt 0.633301 0.235840
vt 0.270508 0.523438
vt 0.746582 0.802124
vt 0.457764 0.479980
vt 0.270508 0.235840
vt 0.383789 0.989235
vt 0.270508 0.244629
vt 0.457764 0.523438
vt 0.746582 0.989235
vt 0.633301 0.244629
vt 0.270508 0.479980
vt 0.633301 0.449219
vt 0.457764 0.486328
vt 0.270508 0.242188
vt 0.270508 0.449219
vt 0.633301 0.242188
vt 0.270508 0.529541
vt 0.270508 0.262207
vt 0.270508 0.250977
vt 0.457764 0.529541
vt 0.633301 0.262207
vt 0.633301 0.250977
vt 0.270508 0.486328
vt 0.017914 0.802124
vt 0.633301 0.218750
vt 0.270508 0.549561
vt 0.380859 0.802124
vt 0.457764 0.471191
vt 0.270508 0.218750
vt 0.017914 0.989235
vt 0.270508 0.201172
vt 0.457764 0.549561
vt 0.380859 0.989235
vt 0.633301 0.201172
vt 0.270508 0.471191
vt 0.746582 0.793213
vt 0.457764 0.477539
vt 0.270508 0.224609
vt 0.383789 0.793213
vt 0.633301 0.224609
vt 0.270508 0.555664
vt 0.383789 0.606201
vt 0.270508 0.207520
vt 0.457764 0.555664
vt 0.746582 0.606201
vt 0.633301 0.207520
vt 0.270508 0.477539
vt 0.636230 0.392578
vt 0.633301 0.462402
vt 0.270508 0.540771
vt 0.999023 0.392578
vt 0.457764 0.497559
vt 0.270508 0.462402
vt 0.636230 0.579834
vt 0.270508 0.253418
vt 0.457764 0.540771
vt 0.999023 0.579834
vt 0.633301 0.253418
vt 0.270508 0.497559
vt 0.624512 0.187988
vt 0.457764 0.503418
vt 0.270508 0.468750
vt 0.261719 0.187988
vt 0.633301 0.468750
vt 0.270508 0.547119
vt 0.261719 0.000977
vt 0.270508 0.259766
vt 0.457764 0.547119
vt 0.624512 0.000977
vt 0.633301 0.259766
vt 0.270508 0.503418
vt 0.990723 0.187988
vt 0.457764 0.538330
vt 0.270508 0.216309
vt 0.627441 0.187988
vt 0.633301 0.216309
vt 0.270508 0.495117
vt 0.627441 0.000977
vt 0.270508 0.459961
vt 0.457764 0.495117
vt 0.990723 0.000977
vt 0.633301 0.459961
vt 0.270508 0.538330
vt 0.270508 0.453613
vt 0.457764 0.488770
vt 0.633301 0.453613
vt 0.270508 0.531982
vt 0.457764 0.531982
vt 0.270508 0.209961
vt 0.633301 0.209961
vt 0.270508 0.488770
s 0
usemtl Material.120
f 1/1/1 2/4/1 3/7/1
f 1/1/1 3/7/1 4/10/1
f 3/8/2 5/13/2 4/11/2
f 4/11/2 5/13/2 6/15/2
f 4/12/3 6/16/3 1/2/3
f 1/2/3 6/16/3 7/17/3
f 1/3/4 7/18/4 2/5/4
f 2/5/4 7/18/4 8/19/4
f 2/6/5 8/20/5 3/9/5
f 3/9/5 8/20/5 5/14/5
f 9/21/1 10/24/1 11/27/1
f 9/21/1 11/27/1 12/30/1
f 11/28/2 13/33/2 12/31/2
f 12/31/2 13/33/2 14/35/2
f 12/32/3 14/36/3 9/22/3
f 9/22/3 14/36/3 15/37/3
f 9/23/4 15/38/4 10/25/4
f 10/25/4 15/38/4 16/39/4
f 10/26/5 16/40/5 11/29/5
f 11/29/5 16/40/5 13/34/5
f 17/41/1 18/44/1 19/47/1
f 17/41/1 19/47/1 20/50/1
f 19/48/2 21/53/2 20/51/2
f 20/51/2 21/53/2 22/55/2
f 20/52/3 22/56/3 17/42/3
f 17/42/3 22/56/3 23/57/3
f 17/43/4 23/58/4 18/45/4
f 18/45/4 23/58/4 24/59/4
f 18/46/5 24/60/5 19/49/5
f 19/49/5 24/60/5 21/54/5
f 25/61/1 26/64/1 27/67/1
f 25/61/1 27/67/1 28/70/1
f 27/68/2 29/73/2 28/71/2
f 28/71/2 29/73/2 30/75/2
f 28/72/3 30/76/3 25/62/3
f 25/62/3 30/76/3 31/77/3
f 25/63/4 31/78/4 26/65/4
f 26/65/4 31/78/4 32/79/4
f 26/66/5 32/80/5 27/69/5
f 27/69/5 32/80/5 29/74/5
f 33/81/6 34/84/6 35/87/6
f 36/90/6 35/87/6 34/84/6
f 37/93/1 38/96/1 39/99/1
f 37/93/1 39/99/1 40/102/1
f 40/103/2 39/100/2 35/88/2
f 40/103/2 35/88/2 36/91/2
f 37/94/3 40/104/3 36/92/3
f 37/94/3 36/92/3 34/85/3
f 38/97/4 37/95/4 34/86/4
f 38/97/4 34/86/4 33/82/4
f 39/101/5 38/98/5 33/83/5
f 39/101/5 33/83/5 35/89/5
f 41/105/6 42/108/6 43/111/6
f 44/114/6 43/111/6 42/108/6
f 45/117/1 46/120/1 47/123/1
f 45/117/1 47/123/1 48/126/1
f 48/127/2 47/124/2 43/112/2
f 48/127/2 43/112/2 44/115/2
f 45/118/3 48/128/3 44/116/3
f 45/118/3 44/116/3 42/109/3
f 46/121/4 45/119/4 42/110/4
f 46/121/4 42/110/4 41/106/4
f 47/125/5 46/122/5 41/107/5
f 47/125/5 41/107/5 43/113/5
f 49/129/6 50/132/6 51/135/6
f 52/138/6 51/135/6 50/132/6
f 53/141/1 54/144/1 55/147/1
f 53/141/1 55/147/1 56/150/1
f 56/151/2 55/148/2 51/136/2
f 56/151/2 51/136/2 52/139/2
f 53/142/3 56/152/3 52/140/3
f 53/142/3 52/140/3 50/133/3
f 54/145/4 53/143/4 50/134/4
f 54/145/4 50/134/4 49/130/4
f 55/149/5 54/146/5 49/131/5
f 55/149/5 49/131/5 51/137/5
f 57/153/6 58/156/6 59/159/6
f 60/162/6 59/159/6 58/156/6
f 61/165/1 62/168/1 63/171/1
f 61/165/1 63/171/1 64/174/1
f 64/175/2 63/172/2 59/160/2
f 64/175/2 59/160/2 60/163/2
f 61/166/3 64/176/3 60/164/3
f 61/166/3 60/164/3 58/157/3
f 62/169/4 61/167/4 58/158/4
f 62/169/4 58/158/4 57/154/4
f 63/173/5 62/170/5 57/155/5
f 63/173/5 57/155/5 59/161/5
f 65/177/1 66/180/1 67/183/1
f 65/177/1 67/183/1 68/186/1
f 68/187/2 67/184/2 69/189/2
f 68/187/2 69/189/2 70/191/2
f 65/178/3 68/188/3 70/192/3
f 65/178/3 70/192/3 71/193/3
f 66/181/4 65/179/4 71/194/4
f 66/181/4 71/194/4 72/195/4
f 66/182/5 69/190/5 67/185/5
f 69/190/5 66/182/5 72/196/5
