# Blender 3.1.0
# www.blender.org
mtllib PuertaIzquierda.mtl
o Plane.004
v -0.302571 0.010593 1.982225
v -0.302880 3.008790 1.416462
v -0.302570 2.409150 1.982225
v -0.302570 1.809511 1.982225
v -0.302570 1.209871 1.982225
v -0.302571 0.610232 1.982225
v -0.303505 0.010593 0.276370
v -0.303584 0.010593 0.132815
v -0.303665 3.008790 -0.016528
v -0.303744 3.008790 -0.160083
v -0.303505 0.610232 0.276432
v -0.303584 0.610232 0.132815
v -0.303505 1.209871 0.276624
v -0.303584 1.209871 0.132815
v -0.303665 1.809511 -0.016274
v -0.303744 1.809511 -0.160083
v -0.303665 2.409150 -0.016465
v -0.303744 2.409150 -0.160083
v -0.303735 2.996111 -0.143244
v -0.303735 2.409150 -0.143244
v -0.303675 2.996111 -0.033366
v -0.303675 2.409148 -0.033305
v -0.303574 0.610232 0.149654
v -0.303574 0.023271 0.149654
v -0.303514 0.023271 0.259532
v -0.303514 0.610234 0.259593
v -0.303574 1.212129 0.149654
v -0.303514 1.207616 0.259784
v -0.303735 1.811768 -0.143244
v -0.303674 1.807252 -0.033112
v -0.311608 2.048191 -0.065138
v -0.311608 2.190549 -0.065138
v -0.310491 2.048191 1.972763
v -0.310491 2.190549 1.972763
v -0.311491 1.234586 0.148522
v -0.311491 1.376944 0.148522
v -0.310491 1.234586 1.972763
v -0.310491 1.376944 1.972763
v -0.311468 0.388174 0.189758
v -0.311468 0.530532 0.189758
v -0.310491 0.388174 1.972763
v -0.310491 0.530532 1.972763
v -0.233730 2.996111 -0.133760
v -0.242535 2.996111 -0.143277
v -0.233730 2.409150 -0.133755
v -0.242535 2.409150 -0.143277
v -0.242475 2.409148 -0.033338
v -0.233680 2.409148 -0.042870
v -0.242475 2.996111 -0.033399
v -0.233680 2.996111 -0.042925
v -0.242374 0.610232 0.149621
v -0.233569 0.610232 0.159143
v -0.242375 0.023271 0.149621
v -0.233569 0.023271 0.159138
v -0.233519 0.023271 0.249972
v -0.242314 0.023271 0.259499
v -0.233519 0.610234 0.250028
v -0.242314 0.610234 0.259560
v -0.242374 1.212129 0.149621
v -0.233569 1.211738 0.159159
v -0.233519 1.208007 0.250202
v -0.242314 1.207616 0.259751
v -0.242535 1.811768 -0.143277
v -0.233730 1.811377 -0.133739
v -0.233680 1.807643 -0.042694
v -0.242475 1.807252 -0.033146
v -0.251858 2.054410 -0.065171
v -0.259599 2.048191 -0.065167
v -0.259599 2.190549 -0.065167
v -0.251858 2.184330 -0.065171
v -0.258483 2.048191 1.972734
v -0.250741 2.054410 1.972730
v -0.250741 2.184330 1.972730
v -0.258483 2.190549 1.972734
v -0.251741 1.240804 0.148489
v -0.259482 1.234586 0.148493
v -0.259482 1.376944 0.148493
v -0.251741 1.370725 0.148489
v -0.258483 1.234586 1.972734
v -0.250741 1.240804 1.972730
v -0.250741 1.370725 1.972730
v -0.258483 1.376944 1.972734
v -0.251718 0.394392 0.189726
v -0.259460 0.388174 0.189730
v -0.259460 0.530532 0.189730
v -0.251718 0.524313 0.189726
v -0.258483 0.388174 1.972734
v -0.250741 0.394392 1.972730
v -0.250741 0.524313 1.972730
v -0.258483 0.530532 1.972734
vn 1.8662 -0.0000 -0.0010
vn 0.0011 0.0004 1.9911
vn 0.0011 -0.0004 1.9911
vn -0.0011 -0.0000 -1.9911
vn -0.0010 -0.5174 -1.8688
vn 0.0011 0.0001 1.9911
vn 0.0010 0.5174 1.8688
vn 0.0011 -0.0001 1.9911
vn -1.8662 -0.0000 0.0010
vn -0.0000 -1.4991 -0.0000
vn -0.0000 1.4991 -0.0000
vn 0.0011 -0.0000 1.9911
vn 1.3282 -0.0000 -1.3986
vn 1.3290 -0.0000 -1.3978
vn 1.2737 -0.3780 -1.3658
vn 1.3298 0.0001 1.3971
vn 1.3298 -0.0001 1.3971
vn 1.3305 -0.0002 1.3963
vn 1.2752 0.3780 1.3644
vn 1.3305 0.0002 1.3963
vn 1.3196 -1.0600 -0.0007
vn 1.3196 1.0600 -0.0007
vt 0.015832 0.017327
vt 0.131174 0.905871
vt 0.015831 0.728162
vt 0.015831 0.550453
vt 0.015832 0.372744
vt 0.015832 0.195035
vt 0.363605 0.017327
vt 0.392872 0.017327
vt 0.423319 0.905871
vt 0.452585 0.905871
vt 0.363593 0.195035
vt 0.392872 0.195035
vt 0.363554 0.372744
vt 0.392872 0.372744
vt 0.423267 0.550453
vt 0.452585 0.550453
vt 0.423306 0.728162
vt 0.452585 0.728162
vt 0.449152 0.902113
vt 0.592666 0.900363
vt 0.107380 0.965041
vt 0.449152 0.728162
vt 0.592666 0.726576
vt 0.426751 0.902113
vt 0.624329 0.900363
vt 0.107380 0.940524
vt 0.426739 0.728161
vt 0.624329 0.726575
vt 0.389439 0.195035
vt 0.592666 0.191114
vt 0.389439 0.021084
vt 0.592666 0.017327
vt 0.367038 0.021084
vt 0.624329 0.017327
vt 0.367026 0.195036
vt 0.624329 0.191114
vt 0.389439 0.373413
vt 0.592666 0.369323
vt 0.366987 0.372076
vt 0.624329 0.367985
vt 0.449152 0.551122
vt 0.592666 0.549703
vt 0.426700 0.549784
vt 0.624329 0.548364
vt 0.709767 0.017327
vt 0.497245 0.937385
vt 0.881852 0.017327
vt 0.671218 0.017327
vt 0.894849 0.506687
vt 0.497245 0.979535
vt 0.709767 0.472034
vt 0.590436 0.977166
vt 0.881853 0.472034
vt 0.671218 0.472034
vt 0.894849 0.961394
vt 0.590436 0.935016
vt 0.926512 0.459014
vt 0.779978 0.506687
vt 0.028828 0.940524
vt 0.741429 0.506687
vt 0.939509 0.017327
vt 0.028828 0.982673
vt 0.926512 0.866048
vt 0.779978 0.913721
vt 0.639555 0.977166
vt 0.741430 0.913721
vt 0.939509 0.424361
vt 0.639555 0.935016
vt 0.971172 0.017327
vt 0.811641 0.415160
vt 0.528908 0.979535
vt 0.850190 0.415160
vt 0.984169 0.449813
vt 0.528908 0.937385
vt 0.971172 0.415160
vt 0.811641 0.017327
vt 0.824638 0.924449
vt 0.850190 0.017327
vt 0.984169 0.847646
vt 0.824638 0.882299
vt 0.504605 0.902472
vt 0.122606 0.962916
vt 0.579354 0.900363
vt 0.506532 0.902732
vt 0.120692 0.965041
vt 0.524054 0.729828
vt 0.579354 0.726576
vt 0.525982 0.730088
vt 0.637641 0.726575
vt 0.505664 0.727346
vt 0.639555 0.726575
vt 0.637641 0.900363
vt 0.120692 0.940524
vt 0.486226 0.899992
vt 0.639555 0.900363
vt 0.122606 0.942649
vt 0.579354 0.191114
vt 0.526327 0.192971
vt 0.524399 0.192711
vt 0.579354 0.017327
vt 0.545777 0.020327
vt 0.543850 0.020067
vt 0.525471 0.017587
vt 0.639555 0.017327
vt 0.637641 0.017327
vt 0.506010 0.190230
vt 0.639555 0.191114
vt 0.637641 0.191114
vt 0.579354 0.369323
vt 0.506382 0.370008
vt 0.504464 0.369632
vt 0.486166 0.366049
vt 0.639555 0.367985
vt 0.639555 0.368788
vt 0.637641 0.367985
vt 0.579354 0.549703
vt 0.545777 0.554379
vt 0.543859 0.554003
vt 0.525561 0.550419
vt 0.639555 0.548364
vt 0.639555 0.548480
vt 0.637641 0.548364
vt 0.484248 0.939227
vt 0.743113 0.017327
vt 0.485932 0.937385
vt 0.741429 0.017327
vt 0.893165 0.017327
vt 0.883536 0.506687
vt 0.485932 0.979535
vt 0.779978 0.017327
vt 0.484248 0.977693
vt 0.778294 0.017327
vt 0.579124 0.977166
vt 0.741430 0.472034
vt 0.893165 0.472034
vt 0.577440 0.975324
vt 0.743113 0.472034
vt 0.577440 0.936858
vt 0.778294 0.472034
vt 0.883536 0.961394
vt 0.579124 0.935016
vt 0.779978 0.472034
vt 0.015831 0.942365
vt 0.672902 0.506687
vt 0.937825 0.459014
vt 0.017515 0.940524
vt 0.671218 0.506687
vt 0.928196 0.017327
vt 0.017515 0.982673
vt 0.709767 0.506687
vt 0.015831 0.980832
vt 0.708083 0.506687
vt 0.937825 0.866048
vt 0.628242 0.977166
vt 0.671218 0.913721
vt 0.626558 0.975325
vt 0.672902 0.913721
vt 0.626558 0.936858
vt 0.708083 0.913721
vt 0.928196 0.424361
vt 0.628242 0.935016
vt 0.709767 0.913721
vt 0.541905 0.977694
vt 0.848505 0.847646
vt 0.982485 0.017327
vt 0.540221 0.979535
vt 0.850190 0.847646
vt 0.972856 0.449813
vt 0.540221 0.937385
vt 0.811641 0.847646
vt 0.541905 0.939227
vt 0.813325 0.847646
vt 0.982485 0.415160
vt 0.813325 0.924449
vt 0.850190 0.449813
vt 0.811641 0.922607
vt 0.848506 0.449813
vt 0.811641 0.884140
vt 0.813325 0.449813
vt 0.972856 0.847646
vt 0.813325 0.882299
vt 0.811641 0.449813
s 0
usemtl Material.139
f 3/3/1 17/17/1 9/9/1 2/2/1
f 1/1/1 7/7/1 11/11/1 6/6/1
f 6/6/1 11/11/1 13/13/1 5/5/1
f 5/5/1 13/13/1 15/15/1 4/4/1
f 4/4/1 15/15/1 17/17/1 3/3/1
f 64/118/1 45/86/1 48/90/1 65/119/1
f 22/28/2 30/44/2 66/122/2 47/89/2
f 45/86/1 43/81/1 50/94/1 48/90/1
f 28/40/3 26/36/3 58/108/3 62/115/3
f 19/19/1 20/22/1 18/18/1 10/10/1
f 21/24/1 19/19/1 10/10/1 9/9/1
f 22/27/1 21/24/1 9/9/1 17/17/1
f 23/29/1 24/31/1 8/8/1 12/12/1
f 24/31/1 25/33/1 7/7/1 8/8/1
f 25/33/1 26/35/1 11/11/1 7/7/1
f 27/37/1 23/29/1 12/12/1 14/14/1
f 26/35/1 28/39/1 13/13/1 11/11/1
f 29/41/1 27/37/1 14/14/1 16/16/1
f 28/39/1 30/43/1 15/15/1 13/13/1
f 20/22/1 29/41/1 16/16/1 18/18/1
f 30/43/1 22/27/1 17/17/1 15/15/1
f 29/42/4 20/23/4 46/87/4 63/116/4
f 52/99/1 60/111/1 61/112/1 57/106/1
f 23/30/4 27/38/4 59/109/4 51/97/4
f 27/38/5 29/42/5 63/116/5 59/109/5
f 21/25/6 22/28/6 47/89/6 49/92/6
f 54/102/1 52/99/1 57/106/1 55/103/1
f 30/44/7 28/40/7 62/115/7 66/122/7
f 26/36/8 25/34/8 56/105/8 58/108/8
f 60/111/1 64/118/1 65/119/1 61/112/1
f 20/23/4 19/20/4 44/83/4 46/87/4
f 24/32/4 23/30/4 51/97/4 53/100/4
f 72/137/1 67/124/1 70/132/1 73/139/1
f 31/45/9 33/51/9 34/54/9 32/48/9
f 35/57/10 76/145/10 79/153/10 37/63/10
f 34/55/11 74/140/11 69/128/11 32/49/11
f 67/123/4 68/125/4 31/46/4 32/50/4 69/129/4 70/131/4
f 33/52/12 71/133/12 72/136/12 73/138/12 74/141/12 34/56/12
f 80/157/1 75/144/1 78/152/1 81/159/1
f 35/58/9 37/64/9 38/66/9 36/60/9
f 39/69/10 84/165/10 87/173/10 41/75/10
f 38/67/11 82/160/11 77/148/11 36/61/11
f 75/143/4 76/146/4 35/59/4 36/62/4 77/149/4 78/151/4
f 37/65/12 79/154/12 80/156/12 81/158/12 82/161/12 38/68/12
f 88/177/1 83/164/1 86/172/1 89/179/1
f 39/70/9 41/76/9 42/78/9 40/72/9
f 42/79/11 90/180/11 85/168/11 40/73/11
f 83/163/4 84/166/4 39/71/4 40/74/4 85/169/4 86/171/4
f 41/77/12 87/174/12 88/176/12 89/178/12 90/181/12 42/80/12
f 43/81/13 45/86/13 46/88/13 44/84/13
f 52/99/13 54/102/13 53/101/13 51/98/13
f 60/111/14 52/99/14 51/98/14 59/110/14
f 64/118/15 60/111/15 59/110/15 63/117/15
f 45/86/14 64/118/14 63/117/14 46/88/14
f 49/92/16 47/89/16 48/91/16 50/95/16
f 58/108/17 56/105/17 55/104/17 57/107/17
f 62/115/18 58/108/18 57/107/18 61/113/18
f 66/122/19 62/115/19 61/114/19 65/120/19
f 47/89/20 66/122/20 65/121/20 48/91/20
f 19/21/11 21/26/11 49/93/11 50/96/11 43/82/11 44/85/11
f 67/124/21 72/137/21 71/134/21 68/126/21
f 73/139/22 70/132/22 69/130/22 74/142/22
f 75/144/21 80/157/21 79/155/21 76/147/21
f 81/159/22 78/152/22 77/150/22 82/162/22
f 83/164/21 88/177/21 87/175/21 84/167/21
f 89/179/22 86/172/22 85/170/22 90/182/22
f 31/47/10 68/127/10 71/135/10 33/53/10
