# Blender 3.1.0
# www.blender.org
mtllib PuertaDerecha.mtl
o Plane.003
v -0.303574 0.023271 0.144925
v -0.303514 0.023271 0.254803
v -0.242375 0.023271 0.144891
v -0.233569 0.023271 0.154408
v -0.233519 0.023271 0.245243
v -0.242314 0.023271 0.254769
v -0.304752 0.010593 -2.006066
v -0.304419 3.008790 -1.397888
v -0.304752 0.610232 -2.006066
v -0.304752 1.209871 -2.006066
v -0.304752 1.809511 -2.006066
v -0.304752 2.409150 -2.006066
v -0.303662 0.010593 -0.016763
v -0.303584 0.010593 0.126793
v -0.303823 3.008790 -0.309660
v -0.303744 3.008790 -0.166105
v -0.303653 0.610234 -0.000479
v -0.303584 0.610232 0.126793
v -0.303653 1.212064 -0.000671
v -0.303584 1.209871 0.126793
v -0.303814 1.811700 -0.293568
v -0.303744 1.809511 -0.166105
v -0.303823 2.409150 -0.309723
v -0.303744 2.409150 -0.166105
v -0.303814 2.409148 -0.293377
v -0.303753 2.996483 -0.182451
v -0.303814 2.996483 -0.293316
v -0.303753 2.409150 -0.182451
v -0.303593 0.022899 0.110447
v -0.303653 0.022899 -0.000418
v -0.303662 0.610232 -0.016825
v -0.303593 0.610232 0.110447
v -0.303662 1.209871 -0.017016
v -0.303593 1.207680 0.110447
v -0.303823 1.809511 -0.309914
v -0.303753 1.807320 -0.182451
v -0.311722 2.048191 -0.280248
v -0.311722 2.190549 -0.280248
v -0.312530 2.048191 -1.755373
v -0.312530 2.190549 -1.755373
v -0.311571 1.234586 -0.004694
v -0.311571 1.376944 -0.004694
v -0.312530 1.234586 -1.755373
v -0.312530 1.376944 -1.755373
v -0.311554 0.388174 0.027631
v -0.311554 0.530532 0.027631
v -0.312530 0.388174 -1.755373
v -0.312530 0.530532 -1.755373
v -0.243446 2.409150 -0.182484
v -0.233759 2.409150 -0.192981
v -0.233808 2.409148 -0.282923
v -0.243507 2.409148 -0.293410
v -0.233808 2.996483 -0.282868
v -0.243507 2.996483 -0.293349
v -0.243446 2.996483 -0.182484
v -0.233759 2.996483 -0.192975
v -0.233598 0.022899 0.099922
v -0.243285 0.022899 0.110414
v -0.243346 0.022899 -0.000451
v -0.233648 0.022899 0.010030
v -0.243346 0.610234 -0.000512
v -0.233648 0.610234 0.009975
v -0.233598 0.610232 0.099916
v -0.243285 0.610232 0.110414
v -0.243346 1.212064 -0.000704
v -0.233648 1.211649 0.009801
v -0.233598 1.208095 0.099899
v -0.243285 1.207680 0.110414
v -0.243507 1.811700 -0.293601
v -0.233808 1.811286 -0.283096
v -0.233759 1.807734 -0.192999
v -0.243446 1.807320 -0.182484
v -0.260213 2.048191 -0.280276
v -0.251972 2.054811 -0.280280
v -0.251972 2.183929 -0.280280
v -0.260213 2.190549 -0.280276
v -0.252780 2.054811 -1.755406
v -0.261022 2.048191 -1.755402
v -0.261022 2.190549 -1.755402
v -0.252780 2.183929 -1.755406
v -0.260063 1.234586 -0.004723
v -0.251821 1.241206 -0.004727
v -0.251821 1.370324 -0.004727
v -0.260063 1.376944 -0.004723
v -0.252780 1.241206 -1.755406
v -0.261022 1.234586 -1.755402
v -0.261022 1.376944 -1.755402
v -0.252780 1.370324 -1.755406
v -0.260045 0.388174 0.027603
v -0.251804 0.394794 0.027598
v -0.251804 0.523912 0.027598
v -0.260045 0.530532 0.027603
v -0.252780 0.394794 -1.755406
v -0.261022 0.388174 -1.755402
v -0.261022 0.530532 -1.755402
v -0.252780 0.523912 -1.755406
vn -0.0000 -1.4991 -0.0000
vn 1.8662 -0.0000 -0.0010
vn -0.0011 0.0004 -1.9911
vn -0.0000 1.4991 -0.0000
vn 0.0011 -0.0000 1.9911
vn -0.0011 -0.0001 -1.9911
vn 0.0010 0.5174 1.8688
vn -0.0011 -0.0004 -1.9911
vn -0.0011 0.0001 -1.9911
vn -0.0010 -0.5174 -1.8688
vn -1.8662 -0.0000 0.0010
vn -0.0011 -0.0000 -1.9911
vn 1.3297 -0.0000 1.3972
vn 1.3304 -0.0000 1.3964
vn 1.2756 0.3779 1.3640
vn 1.3282 0.0001 -1.3987
vn 1.3282 -0.0001 -1.3987
vn 1.3289 -0.0002 -1.3979
vn 1.2741 -0.3779 -1.3654
vn 1.3289 0.0002 -1.3979
vn 1.3196 -1.0600 -0.0007
vn 1.3196 1.0600 -0.0007
vt 0.075717 0.965041
vt 0.075717 0.940524
vt 0.062405 0.965041
vt 0.060491 0.962916
vt 0.060491 0.942649
vt 0.062405 0.940524
vt 0.451435 0.015876
vt 0.327232 0.830029
vt 0.451435 0.178707
vt 0.451435 0.341537
vt 0.451435 0.504368
vt 0.451435 0.667198
vt 0.045176 0.015876
vt 0.015859 0.015876
vt 0.104992 0.830029
vt 0.075675 0.830029
vt 0.041850 0.178707
vt 0.623682 0.665845
vt 0.015859 0.178707
vt 0.041890 0.342133
vt 0.623682 0.502572
vt 0.015859 0.341537
vt 0.101706 0.504962
vt 0.623682 0.337295
vt 0.075675 0.504368
vt 0.105005 0.667198
vt 0.075675 0.667198
vt 0.101667 0.667198
vt 0.623682 0.175214
vt 0.031111 0.884447
vt 0.079013 0.826687
vt 0.591965 0.015876
vt 0.031111 0.861781
vt 0.101654 0.826687
vt 0.623682 0.015876
vt 0.079013 0.667198
vt 0.591965 0.175214
vt 0.019197 0.019218
vt 0.591965 0.825184
vt 0.527889 0.881796
vt 0.041838 0.019218
vt 0.623682 0.825184
vt 0.527889 0.859130
vt 0.045189 0.178707
vt 0.019197 0.178707
vt 0.591965 0.665846
vt 0.045228 0.341537
vt 0.019197 0.340942
vt 0.591965 0.503763
vt 0.105044 0.504368
vt 0.079013 0.503773
vt 0.591965 0.338485
vt 0.849932 0.317457
vt 0.754003 0.833834
vt 0.811317 0.984124
vt 0.811317 0.317457
vt 0.984141 0.317457
vt 0.754003 0.795213
vt 0.849932 0.015876
vt 0.894668 0.808431
vt 0.811317 0.682543
vt 0.811317 0.015876
vt 0.984141 0.015876
vt 0.894668 0.847051
vt 0.926386 0.763461
vt 0.779599 0.763461
vt 0.625915 0.856936
vt 0.740984 0.763461
vt 0.939405 0.373793
vt 0.625915 0.895556
vt 0.926386 0.405545
vt 0.779599 0.405545
vt 0.496171 0.859130
vt 0.740984 0.405545
vt 0.939405 0.015876
vt 0.496171 0.897751
vt 0.894668 0.412153
vt 0.709267 0.380401
vt 0.683671 0.847051
vt 0.670652 0.380401
vt 0.894668 0.380401
vt 0.683671 0.808431
vt 0.894668 0.776679
vt 0.709267 0.015876
vt 0.589731 0.856936
vt 0.670652 0.015876
vt 0.894668 0.015876
vt 0.589731 0.895557
vt 0.578824 0.175214
vt 0.576712 0.175214
vt 0.523376 0.176677
vt 0.638935 0.175214
vt 0.505146 0.174428
vt 0.636823 0.175214
vt 0.524649 0.016138
vt 0.015859 0.863925
vt 0.638935 0.015876
vt 0.017971 0.861781
vt 0.636823 0.015876
vt 0.017971 0.884447
vt 0.578824 0.015876
vt 0.542869 0.018387
vt 0.015859 0.882303
vt 0.576712 0.015876
vt 0.503549 0.827116
vt 0.543141 0.879652
vt 0.576712 0.825184
vt 0.541029 0.881796
vt 0.578824 0.825184
vt 0.541029 0.859130
vt 0.636823 0.825184
vt 0.485329 0.824867
vt 0.543141 0.861274
vt 0.638935 0.825184
vt 0.636823 0.665845
vt 0.504810 0.666575
vt 0.638935 0.665845
vt 0.523040 0.668825
vt 0.576712 0.665846
vt 0.578824 0.665846
vt 0.636823 0.502572
vt 0.524734 0.504485
vt 0.638935 0.502685
vt 0.638935 0.502572
vt 0.542878 0.507696
vt 0.576712 0.503763
vt 0.576712 0.502956
vt 0.578824 0.503763
vt 0.636823 0.337295
vt 0.638935 0.338102
vt 0.638935 0.337295
vt 0.485269 0.335552
vt 0.576712 0.338485
vt 0.576712 0.338373
vt 0.503412 0.338763
vt 0.578824 0.338485
vt 0.742780 0.833834
vt 0.822540 0.984124
vt 0.813112 0.650791
vt 0.740984 0.832038
vt 0.824336 0.984124
vt 0.848136 0.650791
vt 0.740984 0.797009
vt 0.971122 0.317457
vt 0.742780 0.795213
vt 0.972918 0.317457
vt 0.813112 0.349209
vt 0.881649 0.810227
vt 0.824336 0.682543
vt 0.883445 0.808431
vt 0.822540 0.682543
vt 0.883445 0.847051
vt 0.972918 0.015876
vt 0.848136 0.349209
vt 0.881649 0.845255
vt 0.971122 0.015876
vt 0.637139 0.856936
vt 0.937609 0.763461
vt 0.742780 0.373793
vt 0.638935 0.858732
vt 0.939405 0.763461
vt 0.777804 0.373793
vt 0.638935 0.893760
vt 0.926386 0.373793
vt 0.637139 0.895556
vt 0.928181 0.373793
vt 0.742780 0.015876
vt 0.483152 0.860926
vt 0.939405 0.405545
vt 0.484948 0.859130
vt 0.937609 0.405545
vt 0.484948 0.897751
vt 0.928181 0.015876
vt 0.777804 0.015876
vt 0.483152 0.895955
vt 0.926386 0.015876
vt 0.672448 0.847051
vt 0.883445 0.412153
vt 0.672448 0.776679
vt 0.670652 0.845255
vt 0.881649 0.412153
vt 0.707471 0.776679
vt 0.670652 0.810227
vt 0.881649 0.380401
vt 0.672448 0.808431
vt 0.883445 0.380401
vt 0.672448 0.412153
vt 0.576712 0.858732
vt 0.881649 0.776679
vt 0.578508 0.856936
vt 0.883445 0.776679
vt 0.578508 0.895557
vt 0.883445 0.015876
vt 0.707471 0.412153
vt 0.576712 0.893761
vt 0.881649 0.015876
s 0
usemtl Material.140
f 2/2/1 1/1/1 3/3/1 4/4/1 5/5/1 6/6/1
f 31/44/2 9/9/2 10/10/2 33/47/2
f 23/26/2 12/12/2 8/8/2 15/15/2
f 33/47/2 10/10/2 11/11/2 35/50/2
f 35/50/2 11/11/2 12/12/2 23/26/2
f 21/24/3 25/29/3 52/94/3 69/129/3
f 51/93/2 53/95/2 56/102/2 50/91/2
f 27/33/4 26/30/4 55/100/4 56/103/4 53/96/4 54/98/4
f 62/116/2 66/122/2 67/125/2 63/118/2
f 60/112/2 62/116/2 63/118/2 57/105/2
f 13/13/2 7/7/2 9/9/2 31/44/2
f 27/34/2 25/28/2 23/26/2 15/15/2
f 26/31/2 27/34/2 15/15/2 16/16/2
f 28/36/2 26/31/2 16/16/2 24/27/2
f 30/41/2 29/38/2 14/14/2 13/13/2
f 17/17/2 30/41/2 13/13/2 31/44/2
f 29/38/2 32/45/2 18/19/2 14/14/2
f 19/20/2 17/17/2 31/44/2 33/47/2
f 32/45/2 34/48/2 20/22/2 18/19/2
f 21/23/2 19/20/2 33/47/2 35/50/2
f 34/48/2 36/51/2 22/25/2 20/22/2
f 25/28/2 21/23/2 35/50/2 23/26/2
f 36/51/2 28/36/2 24/27/2 22/25/2
f 26/32/5 28/37/5 49/89/5 55/101/5
f 30/42/6 17/18/6 61/115/6 59/111/6
f 34/49/5 32/46/5 64/120/5 68/128/5
f 36/52/7 34/49/7 68/128/7 72/136/7
f 28/37/5 36/52/5 72/136/5 49/89/5
f 32/46/5 29/39/5 58/109/5 64/120/5
f 17/18/8 19/21/8 65/121/8 61/115/8
f 66/122/2 70/132/2 71/135/2 67/125/2
f 25/29/9 27/35/9 54/99/9 52/94/9
f 19/21/10 21/24/10 69/129/10 65/121/10
f 29/40/1 30/43/1 59/110/1 60/113/1 57/106/1 58/108/1
f 77/147/2 80/154/2 75/142/2 74/139/2
f 37/53/11 38/56/11 40/62/11 39/59/11
f 41/65/1 43/71/1 86/171/1 81/158/1
f 40/63/4 38/57/4 76/146/4 79/153/4
f 73/137/5 74/140/5 75/143/5 76/145/5 38/58/5 37/54/5
f 39/60/12 40/64/12 79/152/12 80/155/12 77/148/12 78/150/12
f 85/167/2 88/174/2 83/162/2 82/159/2
f 41/66/11 42/68/11 44/74/11 43/72/11
f 45/77/1 47/83/1 94/191/1 89/178/1
f 44/75/4 42/69/4 84/166/4 87/173/4
f 81/157/5 82/160/5 83/163/5 84/165/5 42/70/5 41/67/5
f 43/73/12 44/76/12 87/172/12 88/175/12 85/168/12 86/170/12
f 93/187/2 96/194/2 91/182/2 90/179/2
f 45/78/11 46/80/11 48/86/11 47/84/11
f 48/87/4 46/81/4 92/186/4 95/193/4
f 89/177/5 90/180/5 91/183/5 92/185/5 46/82/5 45/79/5
f 47/85/12 48/88/12 95/192/12 96/195/12 93/188/12 94/190/12
f 55/101/13 49/89/13 50/90/13 56/104/13
f 64/120/13 58/109/13 57/107/13 63/119/13
f 68/128/14 64/120/14 63/119/14 67/126/14
f 72/136/15 68/128/15 67/127/15 71/133/15
f 49/89/14 72/136/14 71/134/14 50/90/14
f 52/94/16 54/99/16 53/97/16 51/92/16
f 59/111/17 61/115/17 62/117/17 60/114/17
f 61/115/18 65/121/18 66/123/18 62/117/18
f 65/121/19 69/129/19 70/130/19 66/124/19
f 69/129/20 52/94/20 51/92/20 70/131/20
f 70/132/2 51/93/2 50/91/2 71/135/2
f 73/138/21 78/151/21 77/149/21 74/141/21
f 79/153/22 76/146/22 75/144/22 80/156/22
f 81/158/21 86/171/21 85/169/21 82/161/21
f 87/173/22 84/166/22 83/164/22 88/176/22
f 89/178/21 94/191/21 93/189/21 90/181/21
f 95/193/22 92/186/22 91/184/22 96/196/22
f 37/55/1 39/61/1 78/151/1 73/138/1
