# Blender 3.1.0
# www.blender.org
mtllib LucesGenerador.mtl
o lamps
v 0.167744 -0.159286 -0.015272
v 0.167744 -0.159286 -0.032046
v 0.182271 -0.150899 -0.015272
v 0.182271 -0.150899 -0.032046
v 0.182271 -0.134125 -0.015272
v 0.182271 -0.134125 -0.032046
v 0.167744 -0.125738 -0.015272
v 0.167744 -0.125738 -0.032046
v 0.153217 -0.134125 -0.015272
v 0.153217 -0.134125 -0.032046
v 0.153217 -0.150899 -0.015272
v 0.153217 -0.150899 -0.032046
v -0.167744 -0.159286 -0.015272
v -0.167744 -0.159286 -0.032046
v -0.153216 -0.150899 -0.015272
v -0.153216 -0.150899 -0.032046
v -0.153216 -0.134125 -0.015272
v -0.153216 -0.134125 -0.032046
v -0.167744 -0.125738 -0.015272
v -0.167744 -0.125738 -0.032046
v -0.182271 -0.134125 -0.015272
v -0.182271 -0.134125 -0.032046
v -0.182271 -0.150899 -0.015272
v -0.182271 -0.150899 -0.032046
v 0.167744 0.159427 -0.015272
v 0.167744 0.159427 -0.032046
v 0.182271 0.151039 -0.015272
v 0.182271 0.151039 -0.032046
v 0.182271 0.134265 -0.015272
v 0.182271 0.134265 -0.032046
v 0.167744 0.125878 -0.015272
v 0.167744 0.125878 -0.032046
v 0.153217 0.134265 -0.015272
v 0.153217 0.134265 -0.032046
v 0.153217 0.151039 -0.015272
v 0.153217 0.151039 -0.032046
v -0.167744 0.159427 -0.015272
v -0.167744 0.159427 -0.032046
v -0.153216 0.151039 -0.015272
v -0.153216 0.151039 -0.032046
v -0.153216 0.134265 -0.015272
v -0.153216 0.134265 -0.032046
v -0.167744 0.125878 -0.015272
v -0.167744 0.125878 -0.032046
v -0.182271 0.134265 -0.015272
v -0.182271 0.134265 -0.032046
v -0.182271 0.151039 -0.015272
v -0.182271 0.151039 -0.032046
v -0.335487 0.083942 -0.015272
v -0.335487 -0.083802 -0.015272
v 0.335487 -0.083802 -0.015272
v 0.335487 0.083942 -0.015272
v -0.251615 -0.167673 -0.015272
v 0.251615 -0.167673 -0.015272
v 0.251615 0.167814 -0.015272
v -0.251615 0.167814 -0.015272
v -0.260003 -0.052535 -0.048820
v -0.260003 0.052675 -0.048821
v 0.260002 0.052675 -0.048821
v 0.260002 -0.052535 -0.048820
v 0.220349 -0.092189 -0.048820
v -0.220349 -0.092189 -0.048820
v -0.220349 0.092329 -0.048821
v 0.220349 0.092329 -0.048821
v -0.285164 -0.062957 -0.048820
v -0.285164 0.063097 -0.048821
v 0.285164 0.063097 -0.048821
v 0.285164 -0.062957 -0.048820
v 0.230771 -0.117350 -0.048820
v -0.230771 -0.117350 -0.048820
v -0.230771 0.117491 -0.048821
v 0.230771 0.117491 -0.048821
v -0.276777 0.059623 -0.048821
v -0.268390 0.056149 -0.048821
v -0.268390 -0.056009 -0.048820
v -0.276777 -0.059483 -0.048820
v 0.276777 -0.059483 -0.048820
v 0.268390 -0.056009 -0.048820
v 0.268390 0.056149 -0.048821
v 0.276777 0.059623 -0.048821
v -0.227297 -0.108963 -0.048820
v -0.223823 -0.100576 -0.048820
v 0.223823 -0.100576 -0.048820
v 0.227297 -0.108963 -0.048820
v 0.227297 0.109103 -0.048821
v 0.223823 0.100716 -0.048821
v -0.223823 0.100716 -0.048821
v -0.227297 0.109103 -0.048821
v -0.335487 0.083942 0.001503
v -0.335487 -0.083802 0.001503
v 0.335487 -0.083802 0.001503
v 0.335487 0.083942 0.001503
v -0.251615 -0.167673 0.001503
v 0.251615 -0.167673 0.001503
v 0.251615 0.167814 0.001503
v -0.251615 0.167814 0.001503
v -0.260003 -0.052535 -0.040433
v -0.260003 0.052675 -0.040433
v 0.260002 0.052675 -0.040433
v 0.260002 -0.052535 -0.040433
v 0.220349 -0.092189 -0.040433
v -0.220349 -0.092189 -0.040433
v -0.220349 0.092329 -0.040433
v 0.220349 0.092329 -0.040433
v -0.276777 0.059623 -0.040433
v -0.268390 0.056149 -0.040433
v -0.268390 -0.056009 -0.040433
v -0.276777 -0.059483 -0.040433
v 0.276777 -0.059483 -0.040433
v 0.268390 -0.056009 -0.040433
v 0.268390 0.056149 -0.040433
v 0.276777 0.059623 -0.040433
v -0.227297 -0.108963 -0.040433
v -0.223823 -0.100576 -0.040433
v 0.223823 -0.100576 -0.040433
v 0.227297 -0.108963 -0.040433
v 0.227297 0.109103 -0.040433
v 0.223823 0.100716 -0.040433
v -0.223823 0.100716 -0.040433
v -0.227297 0.109103 -0.040433
v 0.201292 -0.167673 -0.015272
v 0.134195 -0.167673 -0.015272
v -0.134195 -0.167673 -0.015272
v -0.201292 -0.167673 -0.015272
v -0.201292 0.167814 -0.015272
v -0.134195 0.167814 -0.015272
v 0.134195 0.167814 -0.015272
v 0.201292 0.167814 -0.015272
v 0.201292 -0.117350 -0.048820
v 0.134195 -0.117350 -0.048820
v -0.134195 -0.117350 -0.048820
v -0.201292 -0.117350 -0.048820
v -0.201292 0.117491 -0.048821
v -0.134195 0.117491 -0.048821
v 0.134195 0.117491 -0.048821
v 0.201292 0.117491 -0.048821
v -0.201292 0.117491 -0.015272
v -0.134195 0.117491 -0.015272
v 0.134195 0.117491 -0.015272
v 0.201292 0.117491 -0.015272
v 0.201292 -0.117350 -0.015272
v 0.134195 -0.117350 -0.015272
v -0.134195 -0.117350 -0.015272
v -0.201292 -0.117350 -0.015272
v -0.016774 -0.083802 -0.057208
v 0.016774 -0.083802 -0.057208
v -0.016774 -0.119890 -0.057208
v 0.016774 -0.119890 -0.057208
v -0.016774 -0.176061 -0.019760
v 0.016774 -0.176061 -0.019760
v -0.016774 -0.083802 0.001503
v 0.016774 -0.083802 0.001503
v -0.016774 -0.176061 0.001503
v 0.016774 -0.176061 0.001503
v -0.016774 0.083942 -0.057208
v 0.016774 0.083942 -0.057208
v -0.016774 0.120030 -0.057208
v 0.016774 0.120030 -0.057208
v -0.016774 0.176201 -0.019760
v 0.016774 0.176201 -0.019760
v -0.016774 0.083942 0.001503
v 0.016774 0.083942 0.001503
v -0.016774 0.176201 0.001503
v 0.016774 0.176201 0.001503
v 0.251615 -0.016704 -0.057208
v 0.251615 0.016844 -0.057208
v 0.287703 -0.016704 -0.057208
v 0.287703 0.016844 -0.057208
v 0.343874 -0.016704 -0.019760
v 0.343874 0.016844 -0.019760
v 0.251615 -0.016704 0.001503
v 0.251615 0.016844 0.001503
v 0.343874 -0.016704 0.001503
v 0.343874 0.016844 0.001503
v -0.251615 -0.016704 -0.057208
v -0.251615 0.016844 -0.057208
v -0.287704 -0.016704 -0.057208
v -0.287704 0.016844 -0.057208
v -0.343874 -0.016704 -0.019760
v -0.343874 0.016844 -0.019760
v -0.251615 -0.016704 0.001503
v -0.251615 0.016844 0.001503
v -0.343874 -0.016704 0.001503
v -0.343874 0.016844 0.001503
vn -0.5000 0.8660 -0.0000
vn -1.0000 -0.0000 -0.0000
vn -0.5000 -0.8660 -0.0000
vn 0.5000 -0.8660 -0.0000
vn -0.0000 -0.0000 1.0000
vn 1.0000 -0.0000 -0.0000
vn 0.5000 0.8660 -0.0000
vn -0.0000 -1.0000 -0.0000
vn 0.5547 -0.0000 0.8321
vn -0.5547 -0.0000 0.8321
vn -0.0000 0.5547 0.8321
vn 0.3922 0.3922 0.8321
vn -0.3922 0.3922 0.8321
vn -0.0000 -0.5547 0.8321
vn -0.3922 -0.3922 0.8321
vn 0.3922 -0.3922 0.8321
vn 0.7071 0.7071 -0.0000
vn -0.0000 1.0000 -0.0000
vn -0.7071 -0.7071 -0.0000
vn 0.7071 -0.7071 -0.0000
vn -0.7071 0.7071 -0.0000
vt 0.803571 0.941585
vt 0.483438 0.930803
vt 0.797991 0.941585
vt 0.803571 0.931919
vt 0.834822 0.943080
vt 0.797991 0.931919
vt 0.829241 0.943080
vt 0.493103 0.925223
vt 0.834822 0.931919
vt 0.787946 0.951250
vt 0.829241 0.931919
vt 0.782366 0.951250
vt 0.493103 0.914062
vt 0.787946 0.941585
vt 0.782366 0.941585
vt 0.483438 0.908482
vt 0.787946 0.931919
vt 0.473214 0.944196
vt 0.782366 0.931919
vt 0.473772 0.914062
vt 0.467634 0.944196
vt 0.473214 0.933035
vt 0.803571 0.951250
vt 0.473772 0.925223
vt 0.467634 0.933035
vt 0.797991 0.951250
vt 0.415737 0.797056
vt 0.904018 0.545759
vt 0.410156 0.797056
vt 0.415737 0.787391
vt 0.850447 0.943080
vt 0.410156 0.787391
vt 0.844866 0.943080
vt 0.904018 0.556920
vt 0.850447 0.931919
vt 0.766741 0.931919
vt 0.844866 0.931919
vt 0.772321 0.931919
vt 0.913683 0.562500
vt 0.766741 0.941585
vt 0.772321 0.941585
vt 0.923349 0.556920
vt 0.766741 0.951250
vt 0.356027 0.944196
vt 0.772321 0.951250
vt 0.923349 0.545759
vt 0.350446 0.944196
vt 0.356027 0.933035
vt 0.415737 0.806722
vt 0.913683 0.540178
vt 0.350446 0.933035
vt 0.410156 0.806722
vt 0.795759 0.941585
vt 0.342813 0.908482
vt 0.790179 0.941585
vt 0.795759 0.951250
vt 0.465402 0.933035
vt 0.790179 0.951250
vt 0.459821 0.933035
vt 0.352478 0.914062
vt 0.465402 0.944196
vt 0.811384 0.931919
vt 0.459821 0.944196
vt 0.805804 0.931919
vt 0.352478 0.925223
vt 0.811384 0.941585
vt 0.805804 0.941585
vt 0.342813 0.930803
vt 0.811384 0.951250
vt 0.827009 0.931919
vt 0.805804 0.951250
vt 0.333147 0.925223
vt 0.821429 0.931919
vt 0.827009 0.943080
vt 0.795759 0.931919
vt 0.333147 0.914062
vt 0.821429 0.943080
vt 0.790179 0.931919
vt 0.774554 0.941585
vt 0.903081 0.890625
vt 0.780134 0.941585
vt 0.774554 0.931919
vt 0.457589 0.933035
vt 0.780134 0.931919
vt 0.452009 0.933035
vt 0.912746 0.896205
vt 0.457589 0.944196
vt 0.758929 0.951250
vt 0.452009 0.944196
vt 0.764509 0.951250
vt 0.912746 0.907366
vt 0.758929 0.941585
vt 0.764509 0.941585
vt 0.903081 0.912946
vt 0.758929 0.931919
vt 0.819197 0.931919
vt 0.764509 0.931919
vt 0.893415 0.907366
vt 0.813616 0.931919
vt 0.819197 0.943080
vt 0.774554 0.951250
vt 0.893415 0.896205
vt 0.813616 0.943080
vt 0.780134 0.951250
vt 0.393973 0.001116
vt 0.435268 0.675223
vt 0.373884 0.449777
vt 0.282366 0.001116
vt 0.381696 0.896205
vt 0.435268 0.563616
vt 0.282366 0.447544
vt 0.443081 0.561384
vt 0.381696 0.449777
vt 0.393973 0.447544
vt 0.443081 0.449777
vt 0.373884 0.896205
vt 0.226562 0.056920
vt 0.381696 0.840402
vt 0.381696 0.505580
vt 0.226562 0.391741
vt 0.449777 0.391741
vt 0.373884 0.840401
vt 0.373884 0.505580
vt 0.449777 0.056920
vt 0.767455 0.578125
vt 0.723772 0.942366
vt 0.407924 0.795759
vt 0.837456 0.578125
vt 0.723772 0.872365
vt 0.425223 0.449777
vt 0.837456 0.924107
vt 0.941964 0.873113
vt 0.767455 0.924107
vt 0.407924 0.449777
vt 0.941964 0.803112
vt 0.741071 0.897723
vt 0.407924 0.476160
vt 0.741071 0.604508
vt 0.407924 0.769375
vt 0.863839 0.604508
vt 0.425223 0.769375
vt 0.723772 0.845982
vt 0.863839 0.897723
vt 0.425223 0.476160
vt 0.296235 0.034598
vt 0.380104 0.034598
vt 0.380104 0.414062
vt 0.296235 0.414062
vt 0.260045 0.377872
vt 0.260045 0.070788
vt 0.416295 0.070788
vt 0.416295 0.377872
vt 0.377793 0.040179
vt 0.222656 0.785159
vt 0.839767 0.572545
vt 0.938616 0.378983
vt 0.765143 0.572545
vt 0.938616 0.453606
vt 0.422991 0.449777
vt 0.298546 0.040179
vt 0.222656 0.705912
vt 0.298546 0.408482
vt 0.940848 0.430809
vt 0.415179 0.785159
vt 0.765143 0.929687
vt 0.395089 0.818715
vt 0.839767 0.929687
vt 0.395089 0.893338
vt 0.377793 0.408482
vt 0.412947 0.785159
vt 0.940848 0.510056
vt 0.265625 0.073100
vt 0.415179 0.449777
vt 0.222656 0.672991
vt 0.735491 0.602197
vt 0.422991 0.479429
vt 0.422991 0.777267
vt 0.735491 0.900035
vt 0.395089 0.789062
vt 0.265625 0.375561
vt 0.415179 0.752237
vt 0.410714 0.375561
vt 0.412946 0.752237
vt 0.433036 0.449777
vt 0.869420 0.900035
vt 0.395089 0.922991
vt 0.433036 0.747615
vt 0.869420 0.602197
vt 0.938616 0.349330
vt 0.410714 0.073100
vt 0.412947 0.449777
vt 0.222656 0.818080
vt 0.440848 0.675223
vt 0.379464 0.449777
vt 0.387277 0.896205
vt 0.440848 0.563616
vt 0.448661 0.561384
vt 0.387277 0.449777
vt 0.448661 0.449777
vt 0.379464 0.896205
vt 0.387277 0.840402
vt 0.387277 0.505580
vt 0.379464 0.840401
vt 0.379464 0.505580
vt 0.886874 0.001116
vt 0.726562 0.942366
vt 0.405134 0.795759
vt 0.956875 0.001116
vt 0.726562 0.872365
vt 0.428014 0.449777
vt 0.956875 0.347098
vt 0.944754 0.873113
vt 0.405134 0.449777
vt 0.886874 0.347098
vt 0.944754 0.803112
vt 0.860491 0.320715
vt 0.405134 0.476160
vt 0.860491 0.027500
vt 0.405134 0.769375
vt 0.428014 0.769375
vt 0.983259 0.027500
vt 0.726562 0.845982
vt 0.428014 0.476160
vt 0.983259 0.320715
vt 0.338730 0.449777
vt 0.219866 0.785159
vt 0.336419 0.455357
vt 0.935826 0.378983
vt 0.261795 0.455357
vt 0.935826 0.453606
vt 0.420201 0.449777
vt 0.259484 0.449777
vt 0.219866 0.705912
vt 0.259484 0.818080
vt 0.943638 0.430809
vt 0.417969 0.785159
vt 0.261795 0.812500
vt 0.392299 0.818715
vt 0.336419 0.812500
vt 0.392299 0.893338
vt 0.410156 0.785159
vt 0.338730 0.818080
vt 0.943638 0.510056
vt 0.417969 0.449777
vt 0.219866 0.672991
vt 0.226562 0.482698
vt 0.232143 0.485009
vt 0.420201 0.479429
vt 0.420201 0.777267
vt 0.232143 0.782847
vt 0.392299 0.789062
vt 0.226562 0.785159
vt 0.417969 0.752237
vt 0.371652 0.785159
vt 0.410156 0.752237
vt 0.430246 0.449777
vt 0.392299 0.922991
vt 0.366071 0.782847
vt 0.430246 0.747615
vt 0.366071 0.485009
vt 0.935826 0.349330
vt 0.371652 0.482698
vt 0.410156 0.449777
vt 0.219866 0.818080
vt 0.381696 0.539062
vt 0.710937 0.735491
vt 0.226562 0.358259
vt 0.568579 0.908482
vt 0.381696 0.583705
vt 0.710937 0.780134
vt 0.226562 0.313616
vt 0.384472 0.898437
vt 0.381696 0.762277
vt 0.226562 0.135045
vt 0.181920 0.672991
vt 0.659598 0.908482
vt 0.226562 0.090402
vt 0.381696 0.806919
vt 0.181920 0.717634
vt 0.566347 0.908482
vt 0.373884 0.539062
vt 0.677455 0.686384
vt 0.449777 0.090402
vt 0.688616 0.909598
vt 0.373884 0.583705
vt 0.677455 0.641741
vt 0.513335 0.105591
vt 0.633929 0.941964
vt 0.373884 0.762277
vt 0.513335 0.284162
vt 0.184152 0.764509
vt 0.593750 0.908482
vt 0.449777 0.358259
vt 0.373884 0.806919
vt 0.184152 0.719866
vt 0.620536 0.941964
vt 0.260045 0.358259
vt 0.213170 0.811384
vt 0.568579 0.943775
vt 0.260045 0.313616
vt 0.213170 0.766741
vt 0.384472 0.933730
vt 0.260045 0.135045
vt 0.148437 0.766741
vt 0.648437 0.941964
vt 0.260045 0.090402
vt 0.148437 0.811384
vt 0.566347 0.943775
vt 0.416295 0.090402
vt 0.161830 0.766741
vt 0.677455 0.943080
vt 0.416295 0.135045
vt 0.479853 0.105591
vt 0.161830 0.811384
vt 0.622768 0.908482
vt 0.416295 0.313616
vt 0.479853 0.284162
vt 0.713170 0.722098
vt 0.582589 0.941964
vt 0.416295 0.358259
vt 0.713170 0.766741
vt 0.609375 0.908482
vt 0.710937 0.686384
vt 0.172991 0.766741
vt 0.688616 0.943080
vt 0.710937 0.641741
vt 0.172991 0.811384
vt 0.633929 0.908482
vt 0.217634 0.764509
vt 0.724330 0.722098
vt 0.593750 0.941964
vt 0.217634 0.719866
vt 0.724330 0.766741
vt 0.620536 0.908482
vt 0.677455 0.735491
vt 0.202009 0.811384
vt 0.579167 0.940246
vt 0.677455 0.780134
vt 0.202009 0.766741
vt 0.373884 0.930201
vt 0.148437 0.672991
vt 0.159598 0.766741
vt 0.659598 0.941964
vt 0.148437 0.717634
vt 0.159598 0.811384
vt 0.555759 0.940246
vt 0.621652 0.881696
vt 0.645647 0.906250
vt 0.893415 0.633928
vt 0.599330 0.881696
vt 0.645647 0.883928
vt 0.871652 0.636161
vt 0.621652 0.857685
vt 0.893415 0.609917
vt 0.599330 0.857685
vt 0.871652 0.660172
vt 0.621652 0.820312
vt 0.878725 0.915178
vt 0.905873 0.572545
vt 0.599330 0.820312
vt 0.878725 0.937500
vt 0.884109 0.697544
vt 0.626116 0.906250
vt 0.912946 0.633928
vt 0.626116 0.883928
vt 0.891183 0.636161
vt 0.871652 0.915178
vt 0.912946 0.572545
vt 0.871652 0.937500
vt 0.891183 0.697544
vt 0.358259 0.820312
vt 0.860491 0.562500
vt 0.882254 0.349330
vt 0.335937 0.820312
vt 0.860491 0.540178
vt 0.677455 0.907366
vt 0.358259 0.844323
vt 0.882254 0.373341
vt 0.335937 0.844323
vt 0.677455 0.883355
vt 0.358259 0.881696
vt 0.888031 0.937500
vt 0.894712 0.410714
vt 0.335937 0.881696
vt 0.888031 0.915178
vt 0.689913 0.845982
vt 0.880022 0.562500
vt 0.901786 0.349330
vt 0.880022 0.540178
vt 0.696986 0.907366
vt 0.880957 0.937500
vt 0.901786 0.410714
vt 0.880957 0.915178
vt 0.696986 0.845982
vt 0.699777 0.843750
vt 0.311384 0.883928
vt 0.262277 0.945312
vt 0.677455 0.843750
vt 0.311384 0.906250
vt 0.880022 0.474330
vt 0.699777 0.819739
vt 0.262277 0.921301
vt 0.677455 0.819739
vt 0.880022 0.450319
vt 0.699777 0.782366
vt 0.708524 0.931919
vt 0.274734 0.883928
vt 0.677455 0.782366
vt 0.708524 0.909598
vt 0.867565 0.412946
vt 0.330915 0.883928
vt 0.281808 0.945312
vt 0.330915 0.906250
vt 0.860491 0.474330
vt 0.715598 0.931919
vt 0.281808 0.883928
vt 0.715598 0.909598
vt 0.860491 0.412946
vt 0.447545 0.771607
vt 0.403460 0.832991
vt 0.891183 0.633928
vt 0.425223 0.771607
vt 0.403460 0.810670
vt 0.713170 0.719866
vt 0.447545 0.795618
vt 0.891183 0.609917
vt 0.425223 0.795618
vt 0.713170 0.695855
vt 0.447545 0.832991
vt 0.440683 0.923393
vt 0.878725 0.572545
vt 0.425223 0.832991
vt 0.440683 0.945715
vt 0.725627 0.658482
vt 0.422991 0.832991
vt 0.871652 0.633928
vt 0.422991 0.810670
vt 0.732701 0.719866
vt 0.447757 0.923393
vt 0.871652 0.572545
vt 0.447757 0.945715
vt 0.732701 0.658482
s 1
usemtl parts2
f 1/1/1 3/4/1 4/6/1 2/3/1
f 3/5/2 5/9/2 6/11/2 4/7/2
f 5/10/3 7/14/3 8/15/3 6/12/3
f 7/14/4 9/17/4 10/19/4 8/15/4
f 4/8/5 6/13/5 8/16/5 10/20/5 12/24/5 2/2/5
f 9/18/6 11/22/6 12/25/6 10/21/6
f 11/23/7 1/1/7 2/3/7 12/26/7
f 13/27/1 15/30/1 16/32/1 14/29/1
f 15/31/2 17/35/2 18/37/2 16/33/2
f 17/36/3 19/40/3 20/41/3 18/38/3
f 19/40/4 21/43/4 22/45/4 20/41/4
f 16/34/5 18/39/5 20/42/5 22/46/5 24/50/5 14/28/5
f 21/44/6 23/48/6 24/51/6 22/47/6
f 23/49/7 13/27/7 14/29/7 24/52/7
f 25/53/3 26/55/3 28/58/3 27/56/3
f 27/57/2 28/59/2 30/63/2 29/61/2
f 29/62/1 30/64/1 32/67/1 31/66/1
f 31/66/7 32/67/7 34/71/7 33/69/7
f 28/60/5 26/54/5 36/76/5 34/72/5 32/68/5 30/65/5
f 33/70/6 34/73/6 36/77/6 35/74/6
f 35/75/4 36/78/4 26/55/4 25/53/4
f 37/79/3 38/81/3 40/84/3 39/82/3
f 39/83/2 40/85/2 42/89/2 41/87/2
f 41/88/1 42/90/1 44/93/1 43/92/1
f 43/92/7 44/93/7 46/97/7 45/95/7
f 40/86/5 38/80/5 48/102/5 46/98/5 44/94/5 42/91/5
f 45/96/6 46/99/6 48/103/6 47/100/6
f 47/101/4 48/104/4 38/81/4 37/79/4
usemtl shell
f 86/184/8 118/256/8 119/259/8 87/187/8
f 66/146/9 49/105/9 50/108/9 65/145/9
f 68/148/10 51/111/10 52/114/10 67/147/10
f 70/150/11 53/117/11 124/277/11 132/306/11
f 65/145/12 50/108/12 53/117/12 70/150/12
f 69/149/13 54/120/13 51/111/13 68/148/13
f 72/152/14 55/121/14 128/293/14 136/320/14
f 67/147/15 52/114/15 55/121/15 72/152/15
f 71/151/16 56/124/16 49/105/16 66/146/16
f 73/153/5 66/146/5 65/145/5 76/160/5
f 77/162/5 68/148/5 67/147/5 80/169/5
f 81/172/5 70/150/5 132/306/5 131/303/5 130/300/5 129/297/5 69/149/5 84/180/5
f 76/160/5 65/145/5 70/150/5 81/172/5
f 84/180/5 69/149/5 68/148/5 77/162/5
f 85/182/5 72/152/5 136/320/5 135/316/5 134/312/5 133/309/5 71/151/5 88/190/5
f 80/169/5 67/147/5 72/152/5 85/182/5
f 88/190/5 71/151/5 66/146/5 73/153/5
f 63/140/5 87/188/5 74/155/5 58/128/5
f 64/144/17 104/223/17 99/210/17 59/130/17
f 59/131/5 79/167/5 86/185/5 64/143/5
f 84/181/8 116/253/8 113/244/8 81/173/8
f 64/143/5 86/185/5 87/188/5 63/140/5
f 85/183/17 117/255/17 112/241/17 80/170/17
f 61/136/5 83/178/5 78/165/5 60/133/5
f 63/141/18 103/220/18 104/223/18 64/144/18
f 57/125/5 75/157/5 82/175/5 62/138/5
f 82/176/18 114/248/18 115/249/18 83/177/18
f 62/138/5 82/175/5 83/178/5 61/136/5
f 79/168/19 111/240/19 118/257/19 86/186/19
f 60/133/5 78/165/5 79/167/5 59/131/5
f 60/134/20 100/213/20 101/217/20 61/137/20
f 58/128/5 74/155/5 75/157/5 57/125/5
f 81/174/19 113/245/19 108/233/19 76/161/19
f 50/109/17 90/195/17 93/201/17 53/118/17
f 51/112/2 91/197/2 92/199/2 52/115/2
f 52/116/19 92/200/19 95/203/19 55/122/19
f 54/119/21 94/202/21 91/198/21 51/113/21
f 53/118/18 93/201/18 94/202/18 54/119/18 121/265/18 122/269/18 123/273/18 124/278/18
f 49/106/6 89/193/6 90/196/6 50/110/6
f 56/123/20 96/204/20 89/194/20 49/107/20
f 55/122/8 95/203/8 96/204/8 56/123/8 125/281/8 126/285/8 127/289/8 128/294/8
usemtl glass
f 98/208/5 97/205/5 102/218/5 101/216/5 100/214/5 99/211/5 104/224/5 103/221/5
usemtl shell
f 119/260/5 120/262/5 105/225/5 106/227/5
f 111/239/5 112/242/5 117/254/5 118/258/5
f 118/258/5 117/254/5 120/262/5 119/260/5
f 115/250/5 116/252/5 109/234/5 110/237/5
f 107/229/5 108/232/5 113/246/5 114/247/5
f 114/247/5 113/246/5 116/252/5 115/250/5
f 110/237/5 109/234/5 112/242/5 111/239/5
f 106/227/5 105/225/5 108/232/5 107/229/5
f 78/166/2 110/238/2 111/240/2 79/168/2
f 58/129/21 98/209/21 103/222/21 63/142/21
f 88/191/18 120/263/18 117/255/18 85/183/18
f 57/126/2 97/206/2 98/209/2 58/129/2
f 80/171/6 112/243/6 109/235/6 77/163/6
f 83/179/21 115/251/21 110/238/21 78/166/21
f 59/132/6 99/212/6 100/215/6 60/135/6
f 74/156/6 106/228/6 107/230/6 75/158/6
f 77/164/20 109/236/20 116/253/20 84/181/20
f 61/137/8 101/217/8 102/219/8 62/139/8
f 87/189/20 119/261/20 106/228/20 74/156/20
f 76/161/2 108/233/2 105/226/2 73/154/2
f 75/159/17 107/231/17 114/248/17 82/176/17
f 62/139/19 102/219/19 97/207/19 57/127/19
f 73/154/21 105/226/21 120/264/21 88/192/21
f 121/266/5 141/335/5 142/338/5 122/270/5
f 123/274/11 122/271/11 130/300/11 131/303/11
f 123/275/5 143/341/5 144/344/5 124/279/5
f 121/267/11 54/120/11 69/149/11 129/297/11
f 125/282/5 137/323/5 138/326/5 126/286/5
f 127/290/14 126/287/14 134/313/14 135/317/14
f 127/291/5 139/329/5 140/332/5 128/295/5
f 125/283/14 56/124/14 71/151/14 133/309/14
f 130/301/18 142/339/18 141/336/18 129/298/18
f 130/302/2 122/272/2 142/340/2
f 121/268/6 129/299/6 141/337/6
f 132/307/18 144/345/18 143/342/18 131/304/18
f 123/276/6 131/305/6 143/343/6
f 132/308/2 124/280/2 144/346/2
f 134/314/8 138/327/8 137/324/8 133/310/8
f 125/284/2 133/311/2 137/325/2
f 134/315/6 126/288/6 138/328/6
f 136/321/8 140/333/8 139/330/8 135/318/8
f 127/292/2 135/319/2 139/331/2
f 136/322/6 128/296/6 140/334/6
usemtl parts1
f 145/347/5 147/353/5 148/355/5 146/350/5
f 147/353/11 149/357/11 150/360/11 148/355/11
f 149/358/18 153/367/18 154/369/18 150/361/18
f 146/351/8 152/365/8 151/363/8 145/348/8
f 146/352/2 148/356/2 150/362/2 154/370/2 152/366/2
f 145/349/6 151/364/6 153/368/6 149/359/6 147/354/6
f 155/371/5 156/374/5 158/379/5 157/377/5
f 157/377/14 158/379/14 160/384/14 159/381/14
f 159/382/8 160/385/8 164/393/8 163/391/8
f 156/375/18 155/372/18 161/387/18 162/389/18
f 156/376/2 162/390/2 164/394/2 160/386/2 158/380/2
f 155/373/6 157/378/6 159/383/6 163/392/6 161/388/6
f 165/395/5 167/401/5 168/403/5 166/398/5
f 167/401/10 169/405/10 170/408/10 168/403/10
f 169/406/2 173/415/2 174/417/2 170/409/2
f 166/399/6 172/413/6 171/411/6 165/396/6
f 166/400/8 168/404/8 170/410/8 174/418/8 172/414/8
f 165/397/18 171/412/18 173/416/18 169/407/18 167/402/18
f 175/419/5 176/422/5 178/427/5 177/425/5
f 177/425/9 178/427/9 180/432/9 179/429/9
f 179/430/6 180/433/6 184/441/6 183/439/6
f 176/423/2 175/420/2 181/435/2 182/437/2
f 176/424/8 182/438/8 184/442/8 180/434/8 178/428/8
f 175/421/18 177/426/18 179/431/18 183/440/18 181/436/18
