# Blender 3.1.0
# www.blender.org
mtllib Piedras2.mtl
o BrownRock3
v 0.355040 0.101494 1.487656
v 0.997227 0.163592 1.722329
v -0.153851 0.297226 2.382017
v -2.231657 0.366302 0.982004
v -0.286823 1.055014 0.357782
v 0.992956 0.757475 0.338221
v 0.430058 1.408765 1.936152
v -1.765193 1.166030 1.589648
v -0.902611 1.396857 0.245515
v 0.483275 1.856487 0.588030
v 1.066396 1.453614 0.705287
v 0.204534 2.376707 1.395722
v 0.047739 0.117394 2.083967
v 0.694643 0.035367 1.834083
v 0.426599 0.043768 2.351295
v 1.297875 0.058790 0.493345
v 0.864681 0.210333 0.595772
v -1.121680 -0.190339 0.688117
v -1.187461 0.293967 1.772277
v 0.252045 0.333295 0.550589
v -1.165938 -0.126031 -0.497632
v 0.540047 1.038772 0.424880
v 1.327894 0.511873 0.673825
v 1.237288 0.847480 0.184829
v 0.154921 0.678650 2.413856
v 0.800789 0.650809 1.907026
v -2.238680 0.623101 1.051451
v -0.921998 0.719920 2.179674
v -0.817307 0.865340 -0.264997
v -2.066566 0.462353 -0.067742
v 0.820894 1.266294 0.238156
v 0.263700 1.643762 0.594762
v 0.820378 1.671752 1.417867
v -0.696932 1.389086 2.029946
v -1.541021 1.517680 1.078675
v -0.044662 2.063725 0.819373
v 0.857941 1.678361 0.525400
v 0.269505 2.166988 1.766426
v 0.636352 2.148192 1.181912
v -0.470971 2.026010 1.622097
v -0.212489 2.249373 1.163239
v 0.353440 2.244732 0.975456
v 1.149737 -0.021814 -0.621501
v 2.383049 0.462544 -0.271270
v 1.013273 0.179692 0.153844
v -0.605298 -0.004692 -0.405873
v 0.396417 0.513201 -1.307208
v 1.589279 0.667472 -1.138535
v 1.375240 1.176202 0.003248
v -0.871395 0.773392 0.197105
v -0.493284 0.956831 -1.109768
v 0.609019 1.343064 -1.549550
v 1.515467 1.415594 -0.820579
v 0.047881 1.639629 -0.718621
v 1.296022 -0.065872 -0.254986
v 1.915197 0.073398 -0.471999
v 1.990198 0.277038 -0.015750
v 2.210186 0.464924 -0.762761
v 1.504560 0.209433 -0.945673
v 0.343363 -0.037896 -0.512354
v -0.042755 -0.039725 0.040923
v 0.653050 0.197546 -0.969749
v -0.168490 0.169525 -0.957434
v 0.971699 0.600417 -1.284387
v 2.144763 0.966165 -0.499443
v 1.710100 1.052524 -1.046223
v 1.045985 0.662877 0.283014
v 2.132075 0.828800 -0.032707
v -0.942198 0.309611 0.012889
v -0.298767 0.369255 0.494250
v -0.107869 0.727055 -1.300207
v -0.779355 0.390601 -0.746405
v 1.084512 1.092099 -1.389770
v 0.526411 0.937712 -1.570009
v 1.689197 1.375943 -0.354832
v 0.033142 1.012131 0.285597
v -0.874686 0.874982 -0.459320
v 0.086706 1.256346 -1.492106
v 0.975621 1.503458 -1.258712
v 0.612403 1.539956 -0.291920
v 0.876153 1.699777 -0.853718
v -0.558110 1.276461 -0.170416
v -0.364433 1.371728 -0.962109
v 0.333172 1.613795 -1.293123
v 0.517495 1.177168 -0.246861
v 1.556184 1.601120 0.029349
v 0.739239 1.055013 0.760098
v -1.080972 0.876899 0.209670
v -0.150734 1.735412 -1.075498
v 0.918206 1.923248 -1.128113
v 0.795464 2.802503 0.489354
v -1.301751 2.107406 0.742144
v -0.914789 2.642913 -0.558775
v 0.187717 2.998527 -1.241473
v 1.013124 3.038076 -0.533807
v -0.356911 3.492496 -0.193635
v 0.718441 1.016530 0.312757
v 1.028112 1.346535 -0.178763
v 1.234525 1.371839 0.428267
v 1.242199 1.724207 -0.624166
v 0.657680 1.444538 -0.834763
v -0.120109 0.543476 0.234623
v -0.474837 0.691267 0.678732
v -0.095560 1.273360 -0.462908
v -0.772751 1.026353 -0.214306
v 0.342905 1.705963 -1.239396
v 1.345119 2.199914 -0.313089
v 1.169312 2.386596 -1.002115
v 0.726170 2.070201 0.808615
v 1.321172 2.038685 0.345298
v -1.386814 1.418259 0.573903
v -0.689420 1.759160 1.038373
v -0.555860 2.199168 -0.818162
v -1.266588 1.328066 -0.100067
v 0.637595 2.483432 -1.283142
v 0.083071 2.379466 -1.391867
v 1.003061 2.995121 0.026167
v -0.356076 2.705047 0.817438
v -1.311423 2.266436 0.104709
v -0.324417 3.033522 -1.050290
v 0.555779 3.176378 -0.931453
v 0.207407 3.390389 0.230392
v 0.466928 3.499645 -0.386967
v -0.969873 2.986855 0.359964
v -0.769225 3.224595 -0.437122
v -0.075551 3.419662 -0.819781
vn -0.0949 -0.6522 -0.0315
vn 0.2903 -0.5801 0.1205
vn 0.0931 -0.6499 0.0653
vn 0.2118 -0.6008 -0.1719
vn -0.1165 -0.6333 -0.1438
vn 0.6303 -0.1068 0.1633
vn 0.0080 -0.0613 0.6569
vn -0.3945 -0.1481 0.5077
vn 0.5106 -0.0835 -0.4095
vn -0.2326 -0.1939 -0.5862
vn 0.5967 0.1503 0.2381
vn -0.1375 0.0577 0.6427
vn -0.6518 0.0097 -0.1016
vn 0.4821 -0.3254 -0.3115
vn -0.2778 -0.2045 -0.5624
vn 0.4521 0.1948 0.4393
vn 0.4483 0.2018 0.4400
vn 0.4524 0.1941 0.4392
vn -0.2704 0.3896 0.4587
vn -0.2728 0.5284 -0.2857
vn -0.0252 0.4615 -0.4709
vn 0.5179 0.3944 -0.1074
vn 0.2697 0.5952 -0.0913
vn 0.3493 0.5042 -0.2429
vn 0.1560 0.4782 -0.4270
vn -0.0673 0.6190 -0.2182
vn -0.1117 0.5478 -0.3503
vn -0.1647 0.5251 -0.3639
vn -0.2590 0.5901 0.1414
vn -0.3196 0.5690 0.0970
vn -0.3508 0.5202 0.2041
vn -0.1687 0.5420 0.3362
vn -0.1722 0.3857 0.5069
vn 0.0505 0.1539 0.6396
vn 0.3721 0.4996 0.2174
vn 0.4867 0.3340 0.2947
vn 0.5848 0.2830 0.1153
vn 0.5332 0.3285 -0.2075
vn 0.2661 0.3290 -0.5063
vn 0.0851 0.3690 -0.5403
vn -0.1938 0.1809 -0.6042
vn 0.1396 0.3808 -0.5204
vn -0.0330 0.4537 -0.4779
vn -0.3116 0.4920 -0.3101
vn -0.5072 0.3997 -0.1354
vn -0.5195 0.4036 0.0499
vn -0.2757 0.2177 0.5585
vn -0.1281 0.1821 0.6211
vn 0.0403 0.3498 0.5579
vn 0.4481 0.2022 0.4401
vn 0.6030 0.1062 0.2458
vn 0.6175 0.1661 0.1624
vn -0.2262 0.2151 -0.5812
vn -0.3601 -0.0092 -0.5528
vn 0.0547 0.2008 -0.6261
vn -0.2081 0.4160 -0.4679
vn -0.1603 0.1991 -0.6083
vn -0.3916 -0.5197 -0.1091
vn -0.4155 -0.1293 0.4960
vn -0.3971 -0.2133 0.4818
vn -0.2981 -0.2991 0.5069
vn 0.3973 0.1753 0.4967
vn 0.4035 0.1227 0.5074
vn 0.4857 0.0268 0.4458
vn 0.6357 0.1764 0.0033
vn 0.6492 0.0039 -0.1176
vn -0.2619 -0.2379 -0.5568
vn -0.2428 -0.2138 -0.5750
vn 0.0227 -0.1247 -0.6475
vn 0.0496 -0.1350 -0.6439
vn 0.3588 0.1238 -0.5397
vn 0.2308 -0.6166 -0.0421
vn -0.3000 -0.5873 -0.0207
vn -0.2228 -0.5720 0.2420
vn -0.1486 -0.5902 0.2546
vn -0.1487 -0.5902 0.2548
vn -0.1487 -0.5900 0.2552
vn -0.1488 -0.5899 0.2553
vn -0.2158 -0.2234 -0.5821
vn -0.2390 -0.6035 -0.1181
vn -0.0289 -0.6521 -0.0961
vn -0.2450 -0.5836 0.1864
vn -0.0981 -0.6512 -0.0403
vn 0.2999 -0.5642 0.1646
vn 0.1028 -0.6409 -0.1181
vn 0.4485 -0.4567 -0.1600
vn 0.0023 -0.6550 -0.0796
vn -0.0316 -0.5770 -0.3184
vn 0.0181 -0.5461 -0.3698
vn 0.5970 0.1877 -0.2090
vn 0.1257 -0.1752 0.6235
vn -0.2286 -0.5691 0.2432
vn -0.1457 -0.3254 -0.5551
vn 0.1639 -0.1697 -0.6162
vn 0.5677 0.3180 0.1090
vn 0.1359 -0.1753 0.6214
vn -0.5288 -0.3640 -0.1522
vn -0.1386 -0.3083 -0.5666
vn 0.3189 0.0381 -0.5763
vn 0.1027 0.5267 0.3838
vn -0.1615 0.4399 0.4644
vn -0.5349 0.2658 -0.2802
vn -0.1206 0.3770 -0.5278
vn 0.2631 0.5673 -0.2104
vn -0.0570 0.6548 -0.0577
vn 0.1161 0.5952 -0.2600
vn 0.1084 0.5024 -0.4137
vn -0.2775 0.5758 -0.1637
vn -0.3278 0.4340 -0.3735
vn -0.4229 0.2812 -0.4212
vn -0.3515 0.5581 -0.0188
vn -0.4908 0.4357 -0.0676
vn -0.5366 0.3790 0.0613
vn -0.1042 0.5902 0.2758
vn -0.0756 0.5198 0.3993
vn 0.0413 0.4649 0.4663
vn -0.0181 0.6365 0.1726
vn 0.1062 0.6115 0.2238
vn 0.2694 0.6003 -0.0494
vn 0.3610 0.4179 -0.3610
vn 0.3061 0.2494 -0.5286
vn 0.3085 0.2496 -0.5271
vn 0.3063 0.2494 -0.5284
vn 0.3088 0.2496 -0.5269
vn -0.0800 0.0493 -0.6531
vn -0.2114 -0.1429 -0.6085
vn -0.3294 -0.0839 -0.5655
vn -0.5693 0.0799 -0.3238
vn -0.6429 -0.0421 -0.1424
vn -0.6530 0.0927 0.0176
vn -0.1262 0.2579 0.5940
vn 0.0616 0.1738 0.6335
vn 0.0931 0.2655 0.5968
vn 0.2223 0.4388 0.4397
vn 0.4553 0.4546 0.1462
vn 0.4148 0.5007 -0.1121
vn 0.2053 -0.0102 -0.6269
vn 0.2398 -0.1809 -0.5874
vn 0.0765 -0.3617 -0.5465
vn -0.3577 -0.1600 -0.5308
vn -0.2844 -0.2891 -0.5205
vn -0.2946 -0.4544 -0.3769
vn -0.3760 -0.1496 0.5211
vn -0.2123 -0.5187 0.3481
vn 0.0498 -0.4743 0.4560
vn 0.1379 0.2383 0.5996
vn 0.1881 -0.0289 0.6317
vn 0.3838 -0.0824 0.5303
vn 0.4352 0.4082 -0.2815
vn 0.4963 0.2512 -0.3548
vn 0.3474 0.0253 -0.5603
vn 0.1660 -0.2736 -0.5770
vn 0.0203 -0.4158 -0.5119
vn 0.0863 -0.4437 -0.4806
vn 0.0095 -0.4782 -0.4545
vn 0.0158 -0.5907 -0.2934
vn -0.0476 -0.6157 -0.2322
vn -0.0253 -0.6590 -0.0198
vn -0.0158 -0.6595 -0.0132
vn 0.0720 -0.5390 0.3736
vn 0.2420 -0.2757 -0.5484
vn 0.2682 -0.4764 -0.3693
vn 0.1270 -0.5847 -0.2780
vn 0.1197 -0.5163 0.3929
vn 0.2103 -0.5832 0.2257
vn 0.3610 -0.5240 0.1745
vn 0.2221 -0.5715 -0.2438
vn 0.3433 -0.5003 -0.2592
vn 0.3159 -0.5167 -0.2618
vn 0.0947 -0.4528 -0.4704
vn 0.0019 -0.6008 -0.2728
vn 0.5966 0.0520 -0.2769
vn 0.3763 -0.0210 0.5415
vn -0.3812 -0.4318 0.3217
vn -0.4570 -0.1483 -0.4522
vn 0.1587 -0.0958 -0.6332
vn 0.6001 0.2605 0.0856
vn 0.1119 -0.0296 0.6495
vn -0.5897 -0.2883 -0.0666
vn -0.4220 -0.0918 -0.4988
vn 0.3072 -0.0077 -0.5839
vn 0.3193 0.4682 0.3378
vn -0.2435 0.3194 0.5235
vn -0.5835 0.1957 -0.2377
vn -0.1591 0.4007 -0.4995
vn 0.3585 0.5000 -0.2384
vn -0.0263 0.6534 -0.0878
vn 0.1620 0.5612 -0.3068
vn 0.1160 0.4943 -0.4213
vn -0.2642 0.5754 -0.1856
vn -0.3280 0.4341 -0.3732
vn -0.4757 0.2046 -0.4088
vn -0.3834 0.5333 0.0625
vn -0.5856 0.2983 -0.0584
vn -0.6022 0.2593 0.0738
vn -0.1514 0.5487 0.3336
vn -0.1136 0.4742 0.4445
vn 0.1230 0.3604 0.5388
vn 0.0236 0.6475 0.1245
vn 0.3214 0.5288 0.2287
vn 0.4320 0.4966 0.0459
vn 0.4210 0.3592 -0.3593
vn 0.3172 0.2912 -0.4999
vn 0.2902 0.2950 -0.5138
vn -0.2110 0.1810 -0.5983
vn -0.4382 -0.0156 -0.4930
vn -0.4099 -0.0299 -0.5161
vn -0.5754 0.0423 -0.3200
vn -0.6496 -0.0059 -0.1151
vn -0.6550 0.0739 0.0284
vn -0.1762 0.2028 0.6026
vn 0.0774 0.1230 0.6436
vn 0.1486 0.2450 0.5943
vn 0.4949 0.2771 0.3370
vn 0.6133 0.2302 0.0787
vn 0.6100 0.2496 0.0301
vn 0.0991 0.1381 -0.6375
vn 0.1419 -0.0897 -0.6381
vn -0.2081 -0.2135 -0.5885
vn -0.4306 -0.0580 -0.4965
vn -0.2715 -0.2348 -0.5536
vn -0.3400 -0.4084 -0.3911
vn -0.3282 -0.0972 0.5641
vn -0.2553 -0.2396 0.5592
vn 0.0200 -0.2069 0.6262
vn 0.3960 0.1790 0.4964
vn 0.4057 0.0120 0.5202
vn 0.5181 -0.0165 0.4082
vn 0.6150 0.2178 -0.0979
vn 0.6370 -0.0268 -0.1698
vn 0.5047 -0.1673 -0.3906
vn 0.2433 -0.4112 -0.4550
vn -0.0375 -0.5662 -0.3366
vn -0.1561 -0.5185 -0.3770
vn 0.0445 -0.5236 -0.3989
vn -0.0089 -0.4556 -0.4771
vn -0.1809 -0.5456 -0.3239
vn -0.2168 -0.6222 0.0339
vn 0.2455 -0.4948 0.3608
vn 0.1861 -0.6313 0.0457
vn 0.3379 -0.4182 -0.3824
vn 0.3358 -0.5025 -0.2647
vn 0.2220 -0.5838 -0.2126
vn 0.3692 -0.5460 0.0298
vn 0.3854 -0.5243 -0.1092
vn 0.3101 -0.5767 -0.0814
s 1
usemtl Material.005
f 1//1 14//1 13//1
f 2//2 14//2 16//2
f 1//3 13//3 18//3
f 1//4 18//4 20//4
f 1//5 20//5 17//5
f 2//6 16//6 23//6
f 3//7 15//7 25//7
f 4//8 19//8 27//8
f 5//9 21//9 29//9
f 6//10 22//10 31//10
f 2//11 23//11 26//11
f 3//12 25//12 28//12
f 4//13 27//13 30//13
f 5//14 29//14 32//14
f 6//15 31//15 24//15
f 7//16 33//17 38//18
f 8//19 34//19 40//19
f 9//20 35//20 41//20
f 10//21 36//21 42//21
f 11//22 37//22 39//22
f 39//23 42//23 12//23
f 39//24 37//24 42//24
f 37//25 10//25 42//25
f 42//26 41//26 12//26
f 42//27 36//27 41//27
f 36//28 9//28 41//28
f 41//29 40//29 12//29
f 41//30 35//30 40//30
f 35//31 8//31 40//31
f 40//32 38//32 12//32
f 40//33 34//33 38//33
f 34//34 7//34 38//34
f 38//35 39//35 12//35
f 38//36 33//36 39//36
f 33//37 11//37 39//37
f 24//38 37//38 11//38
f 24//39 31//39 37//39
f 31//40 10//40 37//40
f 32//41 36//41 10//41
f 32//42 29//42 36//42
f 29//43 9//43 36//43
f 30//44 35//44 9//44
f 30//45 27//45 35//45
f 27//46 8//46 35//46
f 28//47 34//47 8//47
f 28//48 25//48 34//48
f 25//49 7//49 34//49
f 26//50 33//17 7//16
f 26//51 23//51 33//51
f 23//52 11//52 33//52
f 31//53 32//53 10//53
f 31//54 22//54 32//54
f 22//55 5//55 32//55
f 29//56 30//56 9//56
f 29//57 21//57 30//57
f 21//58 4//58 30//58
f 27//59 28//59 8//59
f 27//60 19//60 28//60
f 19//61 3//61 28//61
f 25//62 26//62 7//62
f 25//63 15//63 26//63
f 15//64 2//64 26//64
f 23//65 24//65 11//65
f 23//66 16//66 24//66
f 16//67 6//67 24//67
f 17//68 22//68 6//68
f 17//69 20//69 22//69
f 20//70 5//70 22//70
f 20//71 21//71 5//71
f 20//72 18//72 21//72
f 18//73 4//73 21//73
f 18//74 19//74 4//74
f 18//75 13//76 19//77
f 13//76 3//78 19//77
f 16//79 17//79 6//79
f 16//80 14//80 17//80
f 14//81 1//81 17//81
f 13//82 15//82 3//82
f 13//83 14//83 15//83
f 14//84 2//84 15//84
usemtl Material.004
f 43//85 56//85 55//85
f 44//86 56//86 58//86
f 43//87 55//87 60//87
f 43//88 60//88 62//88
f 43//89 62//89 59//89
f 44//90 58//90 65//90
f 45//91 57//91 67//91
f 46//92 61//92 69//92
f 47//93 63//93 71//93
f 48//94 64//94 73//94
f 44//95 65//95 68//95
f 45//96 67//96 70//96
f 46//97 69//97 72//97
f 47//98 71//98 74//98
f 48//99 73//99 66//99
f 49//100 75//100 80//100
f 50//101 76//101 82//101
f 51//102 77//102 83//102
f 52//103 78//103 84//103
f 53//104 79//104 81//104
f 81//105 84//105 54//105
f 81//106 79//106 84//106
f 79//107 52//107 84//107
f 84//108 83//108 54//108
f 84//109 78//109 83//109
f 78//110 51//110 83//110
f 83//111 82//111 54//111
f 83//112 77//112 82//112
f 77//113 50//113 82//113
f 82//114 80//114 54//114
f 82//115 76//115 80//115
f 76//116 49//116 80//116
f 80//117 81//117 54//117
f 80//118 75//118 81//118
f 75//119 53//119 81//119
f 66//120 79//120 53//120
f 66//121 73//122 79//123
f 73//122 52//124 79//123
f 74//125 78//125 52//125
f 74//126 71//126 78//126
f 71//127 51//127 78//127
f 72//128 77//128 51//128
f 72//129 69//129 77//129
f 69//130 50//130 77//130
f 70//131 76//131 50//131
f 70//132 67//132 76//132
f 67//133 49//133 76//133
f 68//134 75//134 49//134
f 68//135 65//135 75//135
f 65//136 53//136 75//136
f 73//137 74//137 52//137
f 73//138 64//138 74//138
f 64//139 47//139 74//139
f 71//140 72//140 51//140
f 71//141 63//141 72//141
f 63//142 46//142 72//142
f 69//143 70//143 50//143
f 69//144 61//144 70//144
f 61//145 45//145 70//145
f 67//146 68//146 49//146
f 67//147 57//147 68//147
f 57//148 44//148 68//148
f 65//149 66//149 53//149
f 65//150 58//150 66//150
f 58//151 48//151 66//151
f 59//152 64//152 48//152
f 59//153 62//153 64//153
f 62//154 47//154 64//154
f 62//155 63//155 47//155
f 62//156 60//156 63//156
f 60//157 46//157 63//157
f 60//158 61//158 46//158
f 60//159 55//159 61//159
f 55//160 45//160 61//160
f 58//161 59//161 48//161
f 58//162 56//162 59//162
f 56//163 43//163 59//163
f 55//164 57//164 45//164
f 55//165 56//165 57//165
f 56//166 44//166 57//166
f 85//167 98//167 97//167
f 86//168 98//168 100//168
f 85//169 97//169 102//169
f 85//170 102//170 104//170
f 85//171 104//171 101//171
f 86//172 100//172 107//172
f 87//173 99//173 109//173
f 88//174 103//174 111//174
f 89//175 105//175 113//175
f 90//176 106//176 115//176
f 86//177 107//177 110//177
f 87//178 109//178 112//178
f 88//179 111//179 114//179
f 89//180 113//180 116//180
f 90//181 115//181 108//181
f 91//182 117//182 122//182
f 92//183 118//183 124//183
f 93//184 119//184 125//184
f 94//185 120//185 126//185
f 95//186 121//186 123//186
f 123//187 126//187 96//187
f 123//188 121//188 126//188
f 121//189 94//189 126//189
f 126//190 125//190 96//190
f 126//191 120//191 125//191
f 120//192 93//192 125//192
f 125//193 124//193 96//193
f 125//194 119//194 124//194
f 119//195 92//195 124//195
f 124//196 122//196 96//196
f 124//197 118//197 122//197
f 118//198 91//198 122//198
f 122//199 123//199 96//199
f 122//200 117//200 123//200
f 117//201 95//201 123//201
f 108//202 121//202 95//202
f 108//203 115//203 121//203
f 115//204 94//204 121//204
f 116//205 120//205 94//205
f 116//206 113//206 120//206
f 113//207 93//207 120//207
f 114//208 119//208 93//208
f 114//209 111//209 119//209
f 111//210 92//210 119//210
f 112//211 118//211 92//211
f 112//212 109//212 118//212
f 109//213 91//213 118//213
f 110//214 117//214 91//214
f 110//215 107//215 117//215
f 107//216 95//216 117//216
f 115//217 116//217 94//217
f 115//218 106//218 116//218
f 106//219 89//219 116//219
f 113//220 114//220 93//220
f 113//221 105//221 114//221
f 105//222 88//222 114//222
f 111//223 112//223 92//223
f 111//224 103//224 112//224
f 103//225 87//225 112//225
f 109//226 110//226 91//226
f 109//227 99//227 110//227
f 99//228 86//228 110//228
f 107//229 108//229 95//229
f 107//230 100//230 108//230
f 100//231 90//231 108//231
f 101//232 106//232 90//232
f 101//233 104//233 106//233
f 104//234 89//234 106//234
f 104//235 105//235 89//235
f 104//236 102//236 105//236
f 102//237 88//237 105//237
f 102//238 103//238 88//238
f 102//239 97//239 103//239
f 97//240 87//240 103//240
f 100//241 101//241 90//241
f 100//242 98//242 101//242
f 98//243 85//243 101//243
f 97//244 99//244 87//244
f 97//245 98//245 99//245
f 98//246 86//246 99//246
